<svg width="24" height="24" viewBox="0 0 24 24" fill="none" xmlns="http://www.w3.org/2000/svg">
<path d="M21.75 17.2502C21.75 17.4491 21.671 17.6399 21.5303 17.7805C21.3897 17.9212 21.1989 18.0002 21 18.0002C20.8011 18.0002 20.6103 17.9212 20.4697 17.7805C20.329 17.6399 20.25 17.4491 20.25 17.2502C20.2498 15.6186 19.7658 14.0238 18.8593 12.6672C17.9528 11.3107 16.6644 10.2535 15.157 9.62912C13.6496 9.00478 11.991 8.84141 10.3908 9.15965C8.79057 9.47789 7.32065 10.2635 6.16687 11.417L4.06875 13.5002H8.25C8.44891 13.5002 8.63968 13.5792 8.78033 13.7198C8.92098 13.8605 9 14.0513 9 14.2502C9 14.4491 8.92098 14.6399 8.78033 14.7805C8.63968 14.9212 8.44891 15.0002 8.25 15.0002H2.25C2.05109 15.0002 1.86032 14.9212 1.71967 14.7805C1.57902 14.6399 1.5 14.4491 1.5 14.2502V8.25017C1.5 8.05126 1.57902 7.86049 1.71967 7.71984C1.86032 7.57919 2.05109 7.50017 2.25 7.50017C2.44891 7.50017 2.63968 7.57919 2.78033 7.71984C2.92098 7.86049 3 8.05126 3 8.25017V12.4474L5.1075 10.3539C6.47127 8.99086 8.20858 8.06276 10.0998 7.68697C11.991 7.31118 13.9511 7.50457 15.7324 8.2427C17.5137 8.98082 19.0361 10.2305 20.1073 11.8338C21.1784 13.4371 21.75 15.322 21.75 17.2502Z" fill="#245FEE"/>
</svg>
