<svg width="24" height="24" viewBox="0 0 24 24" fill="none" xmlns="http://www.w3.org/2000/svg">
<path d="M18.3861 11.9999C20.697 8.75517 21.8755 5.40174 20.2367 3.76299C18.598 2.12424 15.2445 3.30267 11.9999 5.61361C8.75517 3.30267 5.40174 2.12424 3.76299 3.76299C2.12424 5.40174 3.30267 8.75517 5.61361 11.9999C3.30267 15.2445 2.12424 18.598 3.76299 20.2367C4.2908 20.7645 4.9958 20.9999 5.81705 20.9999C7.54955 20.9999 9.79955 19.9527 12.0045 18.3861C14.2002 19.9527 16.4502 20.9999 18.1874 20.9999C19.0086 20.9999 19.7145 20.7636 20.2414 20.2367C21.8755 18.598 20.697 15.2445 18.3861 11.9999ZM19.1764 4.8233C19.8927 5.53955 19.4089 7.8608 17.4402 10.7558C16.8173 9.98478 16.1542 9.24719 15.4536 8.54611C14.7525 7.84645 14.0149 7.18428 13.2439 6.56236C16.1389 4.59361 18.4602 4.10611 19.1764 4.8233ZM16.527 11.9999C15.8636 12.8391 15.1512 13.6383 14.3933 14.3933C13.6383 15.1512 12.8391 15.8636 11.9999 16.527C11.1606 15.8636 10.3614 15.1512 9.60642 14.3933C8.84857 13.6383 8.13607 12.8391 7.47267 11.9999C8.80365 10.3226 10.3226 8.80365 11.9999 7.47267C12.8391 8.13607 13.6383 8.84857 14.3933 9.60642C15.1512 10.3614 15.8636 11.1606 16.527 11.9999ZM4.8233 4.8233C5.02955 4.61611 5.36986 4.50924 5.81892 4.50924C6.92705 4.50924 8.69611 5.15611 10.7549 6.56236C9.98465 7.18479 9.2474 7.84694 8.54611 8.54611C7.84645 9.24727 7.18428 9.98486 6.56236 10.7558C4.59361 7.8608 4.10705 5.53955 4.8233 4.8233ZM4.8233 19.1764C4.10705 18.4602 4.59361 16.1389 6.56236 13.2439C7.18519 14.0149 7.8483 14.7525 8.54892 15.4536C9.24962 16.1527 9.98624 16.8149 10.7558 17.4374C7.8608 19.4061 5.53955 19.8936 4.8233 19.1764ZM19.1764 19.1764C18.4602 19.8936 16.1389 19.4089 13.2439 17.4402C14.0145 16.8168 14.7521 16.1537 15.4536 15.4536C16.1533 14.7525 16.8154 14.0149 17.4374 13.2439C19.4061 16.1389 19.8927 18.4602 19.1764 19.1764ZM13.1249 11.9999C13.1249 12.2224 13.0589 12.4399 12.9353 12.6249C12.8116 12.8099 12.6359 12.9541 12.4304 13.0392C12.2248 13.1244 11.9986 13.1467 11.7804 13.1032C11.5622 13.0598 11.3617 12.9527 11.2044 12.7954C11.047 12.638 10.9399 12.4376 10.8965 12.2193C10.8531 12.0011 10.8753 11.7749 10.9605 11.5693C11.0456 11.3638 11.1898 11.1881 11.3748 11.0645C11.5598 10.9408 11.7774 10.8749 11.9999 10.8749C12.2982 10.8749 12.5844 10.9934 12.7954 11.2044C13.0063 11.4153 13.1249 11.7015 13.1249 11.9999Z" fill="#FEFEFE"/>
</svg>
