<svg width="45" height="26" viewBox="0 0 45 26" fill="none" xmlns="http://www.w3.org/2000/svg">
<path d="M34.9375 0.0625H4.75C3.60625 0.0625 2.50935 0.516852 1.7006 1.3256C0.891851 2.13435 0.4375 3.23125 0.4375 4.375V21.625C0.4375 22.7687 0.891851 23.8656 1.7006 24.6744C2.50935 25.4831 3.60625 25.9375 4.75 25.9375H34.9375C36.0812 25.9375 37.1781 25.4831 37.9869 24.6744C38.7956 23.8656 39.25 22.7687 39.25 21.625V4.375C39.25 3.23125 38.7956 2.13435 37.9869 1.3256C37.1781 0.516852 36.0812 0.0625 34.9375 0.0625ZM36.375 21.625C36.375 22.0062 36.2236 22.3719 35.954 22.6415C35.6844 22.9111 35.3187 23.0625 34.9375 23.0625H4.75C4.36875 23.0625 4.00312 22.9111 3.73353 22.6415C3.46395 22.3719 3.3125 22.0062 3.3125 21.625V4.375C3.3125 3.99375 3.46395 3.62812 3.73353 3.35853C4.00312 3.08895 4.36875 2.9375 4.75 2.9375H34.9375C35.3187 2.9375 35.6844 3.08895 35.954 3.35853C36.2236 3.62812 36.375 3.99375 36.375 4.375V21.625ZM32.0625 7.25V18.75C32.0625 19.1312 31.9111 19.4969 31.6415 19.7665C31.3719 20.0361 31.0062 20.1875 30.625 20.1875C30.2438 20.1875 29.8781 20.0361 29.6085 19.7665C29.3389 19.4969 29.1875 19.1312 29.1875 18.75V7.25C29.1875 6.86875 29.3389 6.50312 29.6085 6.23353C29.8781 5.96395 30.2438 5.8125 30.625 5.8125C31.0062 5.8125 31.3719 5.96395 31.6415 6.23353C31.9111 6.50312 32.0625 6.86875 32.0625 7.25ZM24.875 7.25V18.75C24.875 19.1312 24.7236 19.4969 24.454 19.7665C24.1844 20.0361 23.8187 20.1875 23.4375 20.1875C23.0563 20.1875 22.6906 20.0361 22.421 19.7665C22.1514 19.4969 22 19.1312 22 18.75V7.25C22 6.86875 22.1514 6.50312 22.421 6.23353C22.6906 5.96395 23.0563 5.8125 23.4375 5.8125C23.8187 5.8125 24.1844 5.96395 24.454 6.23353C24.7236 6.50312 24.875 6.86875 24.875 7.25ZM17.6875 7.25V18.75C17.6875 19.1312 17.536 19.4969 17.2665 19.7665C16.9969 20.0361 16.6312 20.1875 16.25 20.1875C15.8688 20.1875 15.5031 20.0361 15.2335 19.7665C14.964 19.4969 14.8125 19.1312 14.8125 18.75V7.25C14.8125 6.86875 14.964 6.50312 15.2335 6.23353C15.5031 5.96395 15.8688 5.8125 16.25 5.8125C16.6312 5.8125 16.9969 5.96395 17.2665 6.23353C17.536 6.50312 17.6875 6.86875 17.6875 7.25ZM10.5 7.25V18.75C10.5 19.1312 10.3485 19.4969 10.079 19.7665C9.80938 20.0361 9.44375 20.1875 9.0625 20.1875C8.68125 20.1875 8.31562 20.0361 8.04603 19.7665C7.77645 19.4969 7.625 19.1312 7.625 18.75V7.25C7.625 6.86875 7.77645 6.50312 8.04603 6.23353C8.31562 5.96395 8.68125 5.8125 9.0625 5.8125C9.44375 5.8125 9.80938 5.96395 10.079 6.23353C10.3485 6.50312 10.5 6.86875 10.5 7.25ZM45 7.25V18.75C45 19.1312 44.8486 19.4969 44.579 19.7665C44.3094 20.0361 43.9437 20.1875 43.5625 20.1875C43.1813 20.1875 42.8156 20.0361 42.546 19.7665C42.2764 19.4969 42.125 19.1312 42.125 18.75V7.25C42.125 6.86875 42.2764 6.50312 42.546 6.23353C42.8156 5.96395 43.1813 5.8125 43.5625 5.8125C43.9437 5.8125 44.3094 5.96395 44.579 6.23353C44.8486 6.50312 45 6.86875 45 7.25Z" fill="#FEFEFE"/>
</svg>
