<svg width="40" height="35" viewBox="0 0 40 35" fill="none" xmlns="http://www.w3.org/2000/svg">
<path fill-rule="evenodd" clip-rule="evenodd" d="M18.1447 1.81361C17.8301 2.91259 17.5716 4.93004 17.57 6.2977L17.5667 8.78335L22.0572 8.93695L26.5478 9.09003L26.7122 11.8612L26.8771 14.6325H22.4834H18.0903L18.4452 16.0841C19.5022 20.4077 23.9928 26.7086 27.9793 29.4614L29.6313 30.6021L31.1973 29.4793C33.3843 27.9111 33.5068 27.9728 35.2567 31.5237C36.1151 33.2656 36.8836 34.6908 36.9642 34.6908C39.6836 34.6908 40.1811 33.1141 38.4855 29.8694C36.9903 27.0084 37.0529 25.7173 38.6869 25.7173C40.5996 25.7173 40.4516 24.9852 38.0528 22.5814C35.7504 20.2741 35.6404 20.0176 35.3922 16.3686C34.8365 8.20905 28.7979 1.53385 20.7275 0.158797C18.7669 -0.175332 18.7027 -0.13416 18.1447 1.81361ZM9.07004 2.2834C-8.7332 13.8465 1.73603 38.7447 22.6255 34.5235L24.6906 34.1065L21.0726 30.3165C17.2069 26.2679 14.9442 22.4837 13.492 17.6402L12.5906 14.6325H10.1516H7.71199L7.87691 11.8612L8.04129 9.09003L10.0825 8.9264C11.9151 8.77913 12.1236 8.61127 12.1236 7.28425C12.1236 6.47136 12.2793 4.70412 12.4698 3.35757C12.8862 0.410054 12.2591 0.21211 9.07004 2.2834ZM33.7599 19.9511C38.0882 24.337 38.362 24.9155 36.3431 25.4069L34.9802 25.7384L36.6153 28.8802C38.3255 32.1661 38.5803 33.1072 37.7573 33.1072C37.4862 33.1072 36.5032 31.5295 35.5724 29.6013C33.9689 26.2779 33.829 26.1401 32.8928 26.962C30.8064 28.7931 30.5648 28.4088 29.5616 21.6571C28.4871 14.4314 28.3625 14.482 33.7599 19.9511Z" fill="#245FEE"/>
</svg>
