<svg width="46" height="46" viewBox="0 0 46 46" fill="none" xmlns="http://www.w3.org/2000/svg">
<path d="M30.1875 12.9375V35.9375C30.1875 36.3187 30.0361 36.6844 29.7665 36.954C29.4969 37.2236 29.1312 37.375 28.75 37.375C28.3688 37.375 28.0031 37.2236 27.7335 36.954C27.4639 36.6844 27.3125 36.3187 27.3125 35.9375V12.9375C27.3125 12.5563 27.4639 12.1906 27.7335 11.921C28.0031 11.6515 28.3688 11.5 28.75 11.5C29.1312 11.5 29.4969 11.6515 29.7665 11.921C30.0361 12.1906 30.1875 12.5563 30.1875 12.9375ZM35.9375 4.3125C35.5563 4.3125 35.1906 4.46395 34.921 4.73353C34.6514 5.00312 34.5 5.36875 34.5 5.75V35.9375C34.5 36.3187 34.6514 36.6844 34.921 36.954C35.1906 37.2236 35.5563 37.375 35.9375 37.375C36.3187 37.375 36.6844 37.2236 36.954 36.954C37.2236 36.6844 37.375 36.3187 37.375 35.9375V5.75C37.375 5.36875 37.2236 5.00312 36.954 4.73353C36.6844 4.46395 36.3187 4.3125 35.9375 4.3125ZM21.5625 18.6875C21.1813 18.6875 20.8156 18.839 20.546 19.1085C20.2765 19.3781 20.125 19.7438 20.125 20.125V35.9375C20.125 36.3187 20.2765 36.6844 20.546 36.954C20.8156 37.2236 21.1813 37.375 21.5625 37.375C21.9437 37.375 22.3094 37.2236 22.579 36.954C22.8485 36.6844 23 36.3187 23 35.9375V20.125C23 19.7438 22.8485 19.3781 22.579 19.1085C22.3094 18.839 21.9437 18.6875 21.5625 18.6875ZM14.375 25.875C13.9938 25.875 13.6281 26.0264 13.3585 26.296C13.089 26.5656 12.9375 26.9313 12.9375 27.3125V35.9375C12.9375 36.3187 13.089 36.6844 13.3585 36.954C13.6281 37.2236 13.9938 37.375 14.375 37.375C14.7562 37.375 15.1219 37.2236 15.3915 36.954C15.661 36.6844 15.8125 36.3187 15.8125 35.9375V27.3125C15.8125 26.9313 15.661 26.5656 15.3915 26.296C15.1219 26.0264 14.7562 25.875 14.375 25.875ZM7.1875 33.0625C6.80625 33.0625 6.44062 33.2139 6.17103 33.4835C5.90145 33.7531 5.75 34.1188 5.75 34.5V35.9375C5.75 36.3187 5.90145 36.6844 6.17103 36.954C6.44062 37.2236 6.80625 37.375 7.1875 37.375C7.56875 37.375 7.93438 37.2236 8.20397 36.954C8.47355 36.6844 8.625 36.3187 8.625 35.9375V34.5C8.625 34.1188 8.47355 33.7531 8.20397 33.4835C7.93438 33.2139 7.56875 33.0625 7.1875 33.0625Z" fill="#FEFEFE"/>
</svg>
