<svg width="19" height="21" viewBox="0 0 19 21" fill="none" xmlns="http://www.w3.org/2000/svg">
<path d="M2.5028 6.125C2.5028 4.63316 3.09543 3.20242 4.15033 2.14752C5.20522 1.09263 6.63596 0.5 8.1278 0.5C9.61964 0.5 11.0504 1.09263 12.1053 2.14752C13.1602 3.20242 13.7528 4.63316 13.7528 6.125C13.7528 6.32391 13.6738 6.51468 13.5331 6.65533C13.3925 6.79598 13.2017 6.875 13.0028 6.875C12.8039 6.875 12.6131 6.79598 12.4725 6.65533C12.3318 6.51468 12.2528 6.32391 12.2528 6.125C12.2528 5.03098 11.8182 3.98177 11.0446 3.20818C10.271 2.4346 9.22182 2 8.1278 2C7.03378 2 5.98457 2.4346 5.21099 3.20818C4.4374 3.98177 4.0028 5.03098 4.0028 6.125C4.0028 6.32391 3.92378 6.51468 3.78313 6.65533C3.64248 6.79598 3.45171 6.875 3.2528 6.875C3.05389 6.875 2.86312 6.79598 2.72247 6.65533C2.58182 6.51468 2.5028 6.32391 2.5028 6.125ZM15.6278 10.25C15.1903 10.2495 14.7597 10.3588 14.3753 10.5678C14.2605 10.2124 14.0711 9.8856 13.8198 9.60922C13.5686 9.33285 13.2613 9.11328 12.9184 8.96517C12.5755 8.81707 12.2049 8.74384 11.8315 8.75039C11.458 8.75693 11.0903 8.8431 10.7528 9.00312V6.125C10.7528 5.42881 10.4762 4.76113 9.98396 4.26884C9.49167 3.77656 8.82399 3.5 8.1278 3.5C7.43161 3.5 6.76393 3.77656 6.27165 4.26884C5.77936 4.76113 5.5028 5.42881 5.5028 6.125V13.625L5.14468 13.0503C4.79447 12.4485 4.21952 12.0104 3.54633 11.8325C2.87313 11.6546 2.15682 11.7514 1.55499 12.1016C0.953155 12.4518 0.51509 13.0267 0.337165 13.6999C0.15924 14.3731 0.256029 15.0894 0.606239 15.6912L3.35499 20.3787C3.40109 20.47 3.46537 20.5509 3.54389 20.6165C3.62241 20.682 3.71351 20.7308 3.81157 20.7598C3.90964 20.7889 4.01261 20.7975 4.11415 20.7853C4.21569 20.7731 4.31366 20.7402 4.40203 20.6887C4.4904 20.6372 4.56731 20.5682 4.62802 20.4859C4.68874 20.4036 4.73198 20.3098 4.75509 20.2101C4.77819 20.1105 4.78068 20.0072 4.76239 19.9066C4.7441 19.806 4.70542 19.7101 4.64874 19.625L1.9028 14.9375C1.82571 14.8095 1.7749 14.6673 1.75336 14.5194C1.73181 14.3715 1.73995 14.2208 1.7773 14.0761C1.81465 13.9314 1.88047 13.7955 1.9709 13.6765C2.06134 13.5575 2.17458 13.4578 2.30401 13.383C2.43344 13.3083 2.57647 13.2601 2.72474 13.2412C2.87301 13.2224 3.02355 13.2333 3.16757 13.2732C3.31158 13.3132 3.44619 13.3815 3.56352 13.4741C3.68085 13.5667 3.77856 13.6817 3.85093 13.8125L3.86405 13.8341L5.6153 16.6466C5.70128 16.7853 5.83018 16.8922 5.98243 16.951C6.13468 17.0099 6.30197 17.0175 6.45891 16.9726C6.61585 16.9277 6.75387 16.8329 6.85203 16.7025C6.95019 16.5721 7.00312 16.4132 7.0028 16.25V6.125C7.0028 5.82663 7.12133 5.54048 7.33231 5.3295C7.54328 5.11853 7.82943 5 8.1278 5C8.42617 5 8.71232 5.11853 8.9233 5.3295C9.13428 5.54048 9.2528 5.82663 9.2528 6.125V12.5C9.2528 12.6989 9.33182 12.8897 9.47247 13.0303C9.61312 13.171 9.80389 13.25 10.0028 13.25C10.2017 13.25 10.3925 13.171 10.5331 13.0303C10.6738 12.8897 10.7528 12.6989 10.7528 12.5V11.375C10.7528 11.0766 10.8713 10.7905 11.0823 10.5795C11.2933 10.3685 11.5794 10.25 11.8778 10.25C12.1762 10.25 12.4623 10.3685 12.6733 10.5795C12.8843 10.7905 13.0028 11.0766 13.0028 11.375V13.25C13.0028 13.4489 13.0818 13.6397 13.2225 13.7803C13.3631 13.921 13.5539 14 13.7528 14C13.9517 14 14.1425 13.921 14.2831 13.7803C14.4238 13.6397 14.5028 13.4489 14.5028 13.25V12.875C14.5028 12.5766 14.6213 12.2905 14.8323 12.0795C15.0433 11.8685 15.3294 11.75 15.6278 11.75C15.9262 11.75 16.2123 11.8685 16.4233 12.0795C16.6343 12.2905 16.7528 12.5766 16.7528 12.875V16.25C16.7528 18.2759 16.0872 19.6531 16.0816 19.6644C15.9927 19.8423 15.9781 20.0482 16.0411 20.2368C16.104 20.4255 16.2393 20.5814 16.4172 20.6703C16.5212 20.7229 16.6362 20.7502 16.7528 20.75C16.8921 20.7501 17.0287 20.7114 17.1473 20.6382C17.2659 20.565 17.3617 20.4602 17.4241 20.3356C17.4587 20.2672 18.2537 18.6481 18.2537 16.25V12.875C18.2537 12.5302 18.1858 12.1888 18.0538 11.8702C17.9219 11.5517 17.7284 11.2623 17.4846 11.0185C17.2407 10.7747 16.9512 10.5814 16.6326 10.4495C16.314 10.3177 15.9726 10.2499 15.6278 10.25Z" fill="#FEFEFE"/>
</svg>
