<svg width="47" height="46" viewBox="0 0 47 46" fill="none" xmlns="http://www.w3.org/2000/svg">
<path d="M4.3125 21.5625V30.1875C4.3125 30.5687 4.16105 30.9344 3.89147 31.204C3.62188 31.4736 3.25625 31.625 2.875 31.625C2.49375 31.625 2.12812 31.4736 1.85853 31.204C1.58895 30.9344 1.4375 30.5687 1.4375 30.1875V21.5625C1.4375 21.1813 1.58895 20.8156 1.85853 20.546C2.12812 20.2765 2.49375 20.125 2.875 20.125C3.25625 20.125 3.62188 20.2765 3.89147 20.546C4.16105 20.8156 4.3125 21.1813 4.3125 21.5625ZM8.625 15.8125C8.24375 15.8125 7.87812 15.964 7.60853 16.2335C7.33895 16.5031 7.1875 16.8688 7.1875 17.25V34.5C7.1875 34.8812 7.33895 35.2469 7.60853 35.5165C7.87812 35.7861 8.24375 35.9375 8.625 35.9375C9.00625 35.9375 9.37188 35.7861 9.64147 35.5165C9.91105 35.2469 10.0625 34.8812 10.0625 34.5V17.25C10.0625 16.8688 9.91105 16.5031 9.64147 16.2335C9.37188 15.964 9.00625 15.8125 8.625 15.8125ZM14.375 14.375C13.9938 14.375 13.6281 14.5265 13.3585 14.796C13.089 15.0656 12.9375 15.4313 12.9375 15.8125V34.5C12.9375 34.8812 13.089 35.2469 13.3585 35.5165C13.6281 35.7861 13.9938 35.9375 14.375 35.9375C14.7562 35.9375 15.1219 35.7861 15.3915 35.5165C15.661 35.2469 15.8125 34.8812 15.8125 34.5V15.8125C15.8125 15.4313 15.661 15.0656 15.3915 14.796C15.1219 14.5265 14.7562 14.375 14.375 14.375ZM20.125 8.625C19.7438 8.625 19.3781 8.77645 19.1085 9.04603C18.839 9.31562 18.6875 9.68125 18.6875 10.0625V34.5C18.6875 34.8812 18.839 35.2469 19.1085 35.5165C19.3781 35.7861 19.7438 35.9375 20.125 35.9375C20.5062 35.9375 20.8719 35.7861 21.1415 35.5165C21.411 35.2469 21.5625 34.8812 21.5625 34.5V10.0625C21.5625 9.68125 21.411 9.31562 21.1415 9.04603C20.8719 8.77645 20.5062 8.625 20.125 8.625ZM40.0416 19.108C39.4632 15.7704 37.7247 12.7443 35.1329 10.5634C32.5411 8.38245 29.2623 7.18687 25.875 7.1875C25.4938 7.1875 25.1281 7.33895 24.8585 7.60853C24.5889 7.87812 24.4375 8.24375 24.4375 8.625C24.4375 9.00625 24.5889 9.37188 24.8585 9.64147C25.1281 9.91105 25.4938 10.0625 25.875 10.0625C28.7267 10.0524 31.4797 11.1063 33.5957 13.018C35.7118 14.9297 37.0389 17.5618 37.3175 20.3999C37.3504 20.7058 37.4806 20.9931 37.6889 21.2195C37.8972 21.4459 38.1726 21.5995 38.4747 21.6577C39.8906 21.9183 41.1572 22.7004 42.0243 23.8497C42.8914 24.999 43.2958 26.4317 43.1576 27.8647C43.0194 29.2977 42.3487 30.6267 41.278 31.5892C40.2073 32.5516 38.8146 33.0773 37.375 33.0625H25.875C25.4938 33.0625 25.1281 33.2139 24.8585 33.4835C24.5889 33.7531 24.4375 34.1188 24.4375 34.5C24.4375 34.8812 24.5889 35.2469 24.8585 35.5165C25.1281 35.7861 25.4938 35.9375 25.875 35.9375H37.375C39.4297 35.939 41.4174 35.207 42.9803 33.8733C44.5432 32.5395 45.5786 30.6916 45.9002 28.6623C46.2217 26.6329 45.8082 24.5554 44.7342 22.8039C43.6601 21.0523 41.9961 19.7417 40.0416 19.108Z" fill="#FEFEFE"/>
</svg>
