<svg width="25" height="26" viewBox="0 0 25 26" fill="none" xmlns="http://www.w3.org/2000/svg">
<path fill-rule="evenodd" clip-rule="evenodd" d="M12.5 4.40625C7.7538 4.40625 3.90625 8.2538 3.90625 13C3.90625 17.7462 7.7538 21.5938 12.5 21.5938C17.2462 21.5938 21.0938 17.7462 21.0938 13C21.0938 8.2538 17.2462 4.40625 12.5 4.40625ZM2.34375 13C2.34375 7.39086 6.89086 2.84375 12.5 2.84375C18.1091 2.84375 22.6562 7.39086 22.6562 13C22.6562 18.6091 18.1091 23.1562 12.5 23.1562C6.89086 23.1562 2.34375 18.6091 2.34375 13Z" fill="#161616" fill-opacity="0.6"/>
<path fill-rule="evenodd" clip-rule="evenodd" d="M10.9375 12.2188C10.9375 11.7873 11.2873 11.4375 11.7188 11.4375H12.5C12.9315 11.4375 13.2812 11.7873 13.2812 12.2188V16.9062C13.7127 16.9062 14.0625 17.256 14.0625 17.6875C14.0625 18.119 13.7127 18.4688 13.2812 18.4688H12.5C12.0685 18.4688 11.7188 18.119 11.7188 17.6875V13C11.2873 13 10.9375 12.6502 10.9375 12.2188Z" fill="#161616" fill-opacity="0.6"/>
<path d="M12.3047 9.875C12.9519 9.875 13.4766 9.35033 13.4766 8.70312C13.4766 8.05592 12.9519 7.53125 12.3047 7.53125C11.6575 7.53125 11.1328 8.05592 11.1328 8.70312C11.1328 9.35033 11.6575 9.875 12.3047 9.875Z" fill="#161616" fill-opacity="0.6"/>
</svg>
