<svg width="184" height="26" viewBox="0 0 184 26" fill="none" xmlns="http://www.w3.org/2000/svg">
<g clip-path="url(#clip0_1202_7034)">
<path d="M60.8539 18.9302H30.1542C29.0631 18.8372 27.7736 18.5581 27.0296 18.0465C26.1865 17.4884 25.641 16.5581 25.641 15.6279V7.11628C25.641 6.60465 25.3434 5.86047 24.7978 5.48837C24.2523 5.11628 23.1116 4.83721 22.1693 4.83721H17.8049C16.8129 4.83721 15.6226 5.11628 15.1267 5.48837C14.6307 5.81395 14.2836 6.69767 14.2836 7.30233V15.2093C14.234 17.0698 11.7542 18.9302 9.32399 18.9302H4.86038C3.76927 18.9302 2.331 18.6512 1.43827 18.0465C0.495957 17.4419 0 16.1395 0 15.2093V3.81395C0 2.97674 0.446361 1.5814 1.38868 0.930233C2.18221 0.372093 3.37251 0.0465116 4.5628 0H34.3202C35.2129 0 37.4447 0.232558 38.4367 0.883721C39.0318 1.30233 39.5278 2 39.7261 2.69767L39.6765 0H60.6555C61.8954 0 63.1849 0.372093 63.9784 0.883721C64.8216 1.44186 65.3671 2.37209 65.3671 3.30233V15.6279C65.2679 17.3488 63.1849 18.8372 60.8539 18.9302ZM30.6501 17.6279H60.6555C62.4906 17.6279 64.028 16.4651 64.028 15.4419V3.44186C64.028 2.93023 63.6809 2.32558 63.1849 2C62.6393 1.62791 61.5978 1.34884 60.6555 1.34884H41.1148V3.5814H48.0582C50.4388 3.67442 52.5714 5.30233 52.621 7.06977V11.1628C52.621 11.7674 52.2739 13.814 51.2323 14.5581C50.29 15.2093 48.5046 15.4419 47.5623 15.4419H43.793C42.7019 15.4419 40.7181 15.1628 39.8253 14.5581C39.0318 14 38.4863 13.0698 38.4367 12.1395V3.48837C38.4367 3.02326 38.1391 2.32558 37.5935 1.95349C37.0976 1.62791 35.3617 1.30233 34.3202 1.30233H4.71159C3.81887 1.30233 2.82695 1.5814 2.23181 1.95349C1.78544 2.27907 1.38868 3.25581 1.38868 3.86047V15.1628C1.38868 15.7209 1.73585 16.6512 2.23181 16.9767C2.77736 17.3488 3.91806 17.6279 4.86038 17.6279H9.2248C11.0102 17.6279 12.7957 16.2326 12.7957 15.1628V7.25581C12.7957 6.32558 13.2916 5.02326 14.1844 4.4186C15.0771 3.81395 16.6642 3.53488 17.7057 3.53488H22.0701C23.1612 3.53488 24.6491 3.81395 25.5418 4.4186C26.5337 5.06977 26.9305 6.27907 26.9305 7.11628V15.5349C26.9305 16.0465 27.2776 16.6512 27.7736 16.9767C28.3687 17.3488 29.6086 17.6279 30.6501 17.6279ZM43.793 14.093H47.5127C48.455 14.093 49.7941 13.814 50.3396 13.4419C50.786 13.1628 51.1827 11.7674 51.1827 11.1163V7.02326C51.1827 6.04651 49.6949 4.83721 47.8598 4.83721H39.7757V11.9535C39.7757 12.4186 40.0237 13.0698 40.6189 13.4419C41.1644 13.814 42.8011 14.093 43.793 14.093Z" fill="#245FEE"/>
<path d="M1.58873 22.0934C1.83671 22.0934 2.08469 22.1399 2.28307 22.1864C2.48146 22.2329 2.63024 22.3259 2.77903 22.419C2.92782 22.512 2.97741 22.6515 3.0766 22.7911C3.1262 22.9306 3.1758 23.1166 3.1758 23.2562C3.1758 23.4422 3.1262 23.5818 3.0766 23.7213C3.02701 23.8608 2.92782 24.0004 2.77903 24.0934C2.63024 24.1864 2.48146 24.2794 2.28307 24.3259C2.08469 24.3725 1.88631 24.419 1.63833 24.419H0.94399V25.8608H0.398438V22.0469H1.58873V22.0934ZM1.58873 24.0934C1.73752 24.0934 1.88631 24.0934 1.9855 24.0469C2.08469 24.0004 2.18388 23.9539 2.28307 23.8608C2.38226 23.7678 2.43186 23.7213 2.48146 23.5818C2.53105 23.4887 2.53105 23.3957 2.53105 23.2562C2.53105 23.0236 2.43186 22.8376 2.28307 22.698C2.13429 22.5585 1.88631 22.512 1.53914 22.512H0.94399V24.0934H1.58873Z" fill="#245FEE" stroke="#245FEE" stroke-width="0.3685" stroke-miterlimit="5" stroke-linejoin="bevel"/>
<path d="M8.38137 25.9077H7.93501C7.88541 25.9077 7.83582 25.9077 7.83582 25.8612C7.83582 25.8147 7.78622 25.8147 7.78622 25.7682L7.38945 24.8379H5.55441L5.15765 25.7682C5.15765 25.8147 5.10805 25.8147 5.10805 25.8612C5.10805 25.9077 5.05846 25.9077 5.00886 25.9077H4.5625L6.19916 22.0938H6.74471L8.38137 25.9077ZM7.24067 24.5124L6.59592 22.9775C6.59592 22.931 6.54633 22.8844 6.54633 22.8379C6.54633 22.7914 6.49673 22.6984 6.49673 22.6519C6.44714 22.7914 6.39754 22.931 6.39754 23.024L5.7528 24.5589H7.24067V24.5124Z" fill="#245FEE" stroke="#245FEE" stroke-width="0.3685" stroke-miterlimit="5" stroke-linejoin="bevel"/>
<path d="M10.2687 22.4658C10.4175 22.3263 10.6159 22.2333 10.8142 22.1868C11.0126 22.1403 11.2606 22.0938 11.5086 22.0938C11.707 22.0938 11.9054 22.1403 12.0541 22.1868C12.2029 22.2333 12.3517 22.2798 12.5005 22.3728C12.5997 22.4658 12.6989 22.5589 12.7485 22.6984C12.7981 22.8379 12.8477 22.931 12.8477 23.0705C12.8477 23.2565 12.7981 23.4426 12.6989 23.5821C12.5997 23.7217 12.4509 23.8612 12.2525 23.9077C12.3517 23.9542 12.4509 24.0007 12.5501 24.0472C12.6493 24.0938 12.6989 24.1868 12.7485 24.2333C12.7981 24.3263 12.8477 24.3728 12.8973 24.4658C12.9469 24.5589 12.9469 24.6519 12.9469 24.7449C12.9469 24.931 12.8973 25.0705 12.8477 25.21C12.7981 25.3496 12.6989 25.4891 12.5501 25.5821C12.4013 25.6751 12.2525 25.7682 12.1037 25.8147C11.9054 25.8612 11.707 25.9077 11.459 25.9077C11.1614 25.9077 10.9134 25.8612 10.6655 25.7682C10.4175 25.6751 10.2191 25.5356 10.0703 25.3961L10.2191 25.1635L10.2687 25.117H10.3183C10.3679 25.117 10.4175 25.117 10.4671 25.1635C10.5167 25.21 10.6159 25.2565 10.6655 25.3031C10.7647 25.3496 10.8638 25.3961 10.963 25.4426C11.0622 25.4891 11.211 25.4891 11.4094 25.4891C11.5582 25.4891 11.707 25.4891 11.8062 25.4426C11.9054 25.3961 12.0045 25.3496 12.1037 25.3031C12.2029 25.2565 12.2525 25.1635 12.3021 25.0705C12.3517 24.9775 12.3517 24.8844 12.3517 24.7449C12.3517 24.6519 12.3517 24.5589 12.3021 24.4658C12.2525 24.3728 12.2029 24.3263 12.1037 24.2333C12.0045 24.1868 11.9549 24.1403 11.8062 24.0937C11.707 24.0472 11.5582 24.0472 11.4094 24.0472H10.8638V23.6286H11.4094C11.5086 23.6286 11.6574 23.6286 11.7566 23.5821C11.8558 23.5356 11.9549 23.5356 12.0045 23.4426C12.0541 23.3961 12.1533 23.3496 12.1533 23.2565C12.2029 23.1635 12.2029 23.117 12.2029 22.9775C12.2029 22.8844 12.2029 22.7914 12.1533 22.7449C12.1037 22.6984 12.0541 22.6054 12.0045 22.5589C11.9549 22.5124 11.8558 22.4658 11.7566 22.4193C11.6574 22.3728 11.5582 22.3728 11.4094 22.3728C11.2606 22.3728 11.1118 22.3728 11.0126 22.4193C10.9134 22.4658 10.8142 22.4658 10.7151 22.5124C10.6655 22.5589 10.5663 22.6054 10.5167 22.6054C10.4671 22.6519 10.4175 22.6519 10.4175 22.6519C10.3679 22.6519 10.3679 22.6519 10.3679 22.6519L10.3183 22.6054L10.2687 22.4658Z" fill="#245FEE" stroke="#245FEE" stroke-width="0.3685" stroke-miterlimit="5" stroke-linejoin="bevel"/>
<path d="M16.568 22.0934C16.816 22.0934 17.064 22.1399 17.2624 22.1864C17.4607 22.2329 17.6095 22.3259 17.7583 22.419C17.9071 22.512 17.9567 22.6515 18.0559 22.7911C18.1055 22.9306 18.1551 23.1166 18.1551 23.2562C18.1551 23.4422 18.1055 23.5818 18.0559 23.7213C18.0063 23.8608 17.9071 24.0004 17.7583 24.0934C17.6095 24.1864 17.4607 24.2794 17.2624 24.3259C17.064 24.3725 16.8656 24.419 16.6176 24.419H15.8737V25.8608H15.3281V22.0469H16.568V22.0934ZM16.568 24.0934C16.7168 24.0934 16.8656 24.0934 16.9648 24.0469C17.064 24.0004 17.1632 23.9539 17.2624 23.8608C17.3615 23.7678 17.4111 23.7213 17.4607 23.6283C17.5103 23.5352 17.5103 23.4422 17.5103 23.3027C17.5103 23.0701 17.4111 22.8841 17.2624 22.7445C17.1136 22.605 16.8656 22.5585 16.5184 22.5585H15.8737V24.1399H16.568V24.0934Z" fill="#245FEE" stroke="#245FEE" stroke-width="0.3685" stroke-miterlimit="5" stroke-linejoin="bevel"/>
<path d="M23.3579 25.9077H22.9116C22.862 25.9077 22.8124 25.9077 22.8124 25.8612C22.8124 25.8147 22.7628 25.8147 22.7628 25.7682L22.366 24.8379H20.531L20.1342 25.7682C20.1342 25.8147 20.0846 25.8147 20.0846 25.8612C20.0846 25.9077 20.035 25.9077 19.9854 25.9077H19.5391L21.1757 22.0938H21.7213L23.3579 25.9077ZM22.2172 24.5124L21.5725 22.9775C21.5725 22.931 21.5229 22.8844 21.5229 22.8379C21.5229 22.7914 21.4733 22.6984 21.4733 22.6519C21.4237 22.7914 21.3741 22.931 21.3741 23.024L20.7294 24.5589H22.2172V24.5124Z" fill="#245FEE" stroke="#245FEE" stroke-width="0.3685" stroke-miterlimit="5" stroke-linejoin="bevel"/>
<path d="M26.8313 23.722C27.0792 23.722 27.2776 23.7685 27.476 23.815C27.6744 23.8616 27.8232 23.9546 27.9224 24.0476C28.0216 24.1406 28.1208 24.2336 28.1704 24.3732C28.22 24.5127 28.2695 24.6523 28.2695 24.7918C28.2695 24.9778 28.22 25.1174 28.1704 25.2569C28.1208 25.3964 28.0216 25.536 27.8728 25.629C27.7736 25.722 27.6248 25.815 27.4264 25.8616C27.228 25.9081 27.0297 25.9546 26.8313 25.9546H25.4922V22.1406H28.1208V22.5592H26.0377V23.722H26.8313ZM26.8313 25.4895C26.9801 25.4895 27.1288 25.4895 27.228 25.443C27.3272 25.3964 27.4264 25.3499 27.5256 25.3034C27.5752 25.2569 27.6248 25.1639 27.6744 25.0709C27.724 24.9778 27.724 24.8848 27.724 24.7918C27.724 24.6988 27.724 24.6057 27.6744 24.5127C27.6248 24.4197 27.5752 24.3732 27.5256 24.2802C27.476 24.2336 27.3768 24.1871 27.228 24.1406C27.0793 24.0941 26.9801 24.0941 26.8313 24.0941H26.0377V25.443H26.8313V25.4895Z" fill="#245FEE" stroke="#245FEE" stroke-width="0.3685" stroke-miterlimit="5" stroke-linejoin="bevel"/>
<path d="M34.3247 24.0004C34.3247 24.2794 34.2751 24.5585 34.1759 24.7911C34.0767 25.0236 33.9279 25.2562 33.7791 25.3957C33.5807 25.5818 33.3823 25.7213 33.1344 25.8143C32.8864 25.9073 32.5888 25.9538 32.2912 25.9538C31.9937 25.9538 31.6961 25.9073 31.4481 25.8143C31.2001 25.7213 31.0017 25.5818 30.8034 25.3957C30.605 25.2097 30.5058 25.0236 30.4066 24.7911C30.3074 24.5585 30.2578 24.2794 30.2578 24.0004C30.2578 23.7213 30.3074 23.4422 30.4066 23.2097C30.5058 22.9771 30.6546 22.7445 30.8034 22.605C31.0017 22.419 31.2001 22.2794 31.4481 22.1864C31.6961 22.0934 31.9441 22.0469 32.2912 22.0469C32.6384 22.0469 32.8864 22.0934 33.1344 22.1864C33.3823 22.2794 33.5807 22.419 33.7791 22.605C33.9775 22.7911 34.0767 22.9771 34.1759 23.2097C34.2751 23.4422 34.3247 23.7213 34.3247 24.0004ZM33.7791 24.0004C33.7791 23.7678 33.7295 23.5352 33.6799 23.3492C33.6303 23.1632 33.5311 23.0236 33.3823 22.8841C33.2336 22.7445 33.0848 22.6515 32.936 22.605C32.7872 22.5585 32.5392 22.512 32.3408 22.512C32.1424 22.512 31.9441 22.5585 31.7457 22.605C31.5473 22.6515 31.3985 22.7911 31.2993 22.8841C31.2001 22.9771 31.0513 23.1632 31.0017 23.3492C30.9522 23.5352 30.9026 23.7678 30.9026 24.0004C30.9026 24.2329 30.9522 24.4655 31.0017 24.6515C31.0513 24.8376 31.1505 24.9771 31.2993 25.1166C31.4481 25.2562 31.5969 25.3492 31.7457 25.3957C31.9441 25.4422 32.1424 25.4887 32.3408 25.4887C32.5392 25.4887 32.7376 25.4422 32.936 25.3957C33.1344 25.3492 33.2832 25.2097 33.3823 25.1166C33.4815 25.0236 33.5807 24.8376 33.6799 24.6515C33.7791 24.4655 33.7791 24.2329 33.7791 24.0004Z" fill="#245FEE" stroke="#245FEE" stroke-width="0.3685" stroke-miterlimit="5" stroke-linejoin="bevel"/>
<path d="M39.4268 22.5124H38.0878V25.9077H37.5422V22.5124H36.2031V22.0938H39.3773V22.5124H39.4268Z" fill="#245FEE" stroke="#245FEE" stroke-width="0.3685" stroke-miterlimit="5" stroke-linejoin="bevel"/>
<path d="M44.8827 25.9081H44.3867C44.3371 25.9081 44.2875 25.9081 44.2379 25.8616C44.1883 25.815 44.1388 25.815 44.1388 25.722L43.0477 24.3267C42.9981 24.2802 42.9485 24.1871 42.8989 24.1871C42.8493 24.1871 42.7501 24.1871 42.6509 24.1871H42.1549V25.9546H41.6094V22.1406H42.1549V23.815H42.6013C42.7005 23.815 42.7501 23.815 42.7997 23.7685C42.8493 23.722 42.8989 23.6755 42.9981 23.629L44.0892 22.2802C44.1388 22.2336 44.1388 22.1871 44.1883 22.1871C44.2379 22.1406 44.2875 22.1406 44.3371 22.1406H44.7835L43.5436 23.722C43.4444 23.8616 43.3452 23.9081 43.1964 23.9546C43.2956 24.0011 43.3948 24.0011 43.4444 24.0941C43.494 24.1406 43.5932 24.2336 43.6428 24.3267L44.8827 25.9081Z" fill="#245FEE" stroke="#245FEE" stroke-width="0.3685" stroke-miterlimit="5" stroke-linejoin="bevel"/>
<path d="M50.3423 25.9077H49.8959C49.8463 25.9077 49.7968 25.9077 49.7968 25.8612C49.7968 25.8147 49.7472 25.8147 49.7472 25.7682L49.3504 24.8379H47.5154L47.1186 25.7682C47.1186 25.8147 47.069 25.8147 47.069 25.8612C47.069 25.9077 47.0194 25.9077 46.9698 25.9077H46.5234L48.1601 22.0938H48.7056L50.3423 25.9077ZM49.152 24.5124L48.5073 22.9775C48.5073 22.931 48.4577 22.8844 48.4577 22.8379C48.4577 22.7914 48.4081 22.6984 48.4081 22.6519C48.3585 22.7914 48.3089 22.931 48.3089 23.024L47.6641 24.5589H49.152V24.5124Z" fill="#245FEE" stroke="#245FEE" stroke-width="0.3685" stroke-miterlimit="5" stroke-linejoin="bevel"/>
<path d="M58.5777 25.9077H58.0321V22.5124H55.9987V25.9077H55.4531V22.0938H58.5777V25.9077Z" fill="#245FEE" stroke="#245FEE" stroke-width="0.3685" stroke-miterlimit="5" stroke-linejoin="bevel"/>
<path d="M62.3907 22.0934C62.6387 22.0934 62.8867 22.1399 63.085 22.1864C63.2834 22.2329 63.4322 22.3259 63.581 22.419C63.7298 22.512 63.7794 22.6515 63.8786 22.7911C63.9282 22.9306 63.9778 23.1166 63.9778 23.2562C63.9778 23.4422 63.9282 23.5818 63.8786 23.7213C63.829 23.8608 63.7298 24.0004 63.581 24.0934C63.4322 24.1864 63.2834 24.2794 63.085 24.3259C62.8867 24.3725 62.6883 24.419 62.4403 24.419H61.7956V25.8608H61.25V22.0469H62.3907V22.0934ZM62.3907 24.0934C62.5395 24.0934 62.6883 24.0934 62.7875 24.0469C62.8867 24.0004 62.9858 23.9539 63.085 23.8608C63.1842 23.7678 63.2338 23.7213 63.2834 23.6283C63.333 23.5352 63.333 23.4422 63.333 23.3027C63.333 23.0701 63.2338 22.8841 63.085 22.7445C62.9363 22.605 62.6883 22.5585 62.3411 22.5585H61.6964V24.1399H62.3907V24.0934Z" fill="#245FEE" stroke="#245FEE" stroke-width="0.3685" stroke-miterlimit="5" stroke-linejoin="bevel"/>
<path d="M69.9809 24.0004C69.9809 24.2794 69.9313 24.5585 69.8321 24.7911C69.7329 25.0236 69.5841 25.2562 69.4354 25.3957C69.237 25.5818 69.0386 25.7213 68.7906 25.8143C68.5426 25.9073 68.2451 25.9538 67.9475 25.9538C67.6499 25.9538 67.3523 25.9073 67.1044 25.8143C66.8564 25.7213 66.658 25.5818 66.4596 25.3957C66.2612 25.2097 66.162 25.0236 66.0629 24.7911C65.9637 24.5585 65.9141 24.2794 65.9141 24.0004C65.9141 23.7213 65.9637 23.4422 66.0629 23.2097C66.162 22.9771 66.3108 22.7445 66.4596 22.605C66.658 22.419 66.8564 22.2794 67.1044 22.1864C67.3523 22.0934 67.6003 22.0469 67.9475 22.0469C68.2947 22.0469 68.5426 22.0934 68.7906 22.1864C69.0386 22.2794 69.237 22.419 69.4354 22.605C69.6337 22.7911 69.7329 22.9771 69.8321 23.2097C69.9313 23.4422 69.9809 23.7213 69.9809 24.0004ZM69.3858 24.0004C69.3858 23.7678 69.3362 23.5352 69.2866 23.3492C69.237 23.1632 69.1378 23.0236 68.989 22.8841C68.8402 22.7445 68.6914 22.6515 68.5426 22.605C68.3938 22.5585 68.1459 22.512 67.9475 22.512C67.7491 22.512 67.5507 22.5585 67.3523 22.605C67.154 22.6515 67.0052 22.7911 66.906 22.8841C66.8068 22.9771 66.658 23.1632 66.6084 23.3492C66.5588 23.5352 66.5092 23.7678 66.5092 24.0004C66.5092 24.2329 66.5588 24.4655 66.6084 24.6515C66.658 24.8376 66.7572 24.9771 66.906 25.1166C67.0548 25.2562 67.2036 25.3492 67.3523 25.3957C67.5507 25.4422 67.7491 25.4887 67.9475 25.4887C68.1459 25.4887 68.3443 25.4422 68.5426 25.3957C68.741 25.3492 68.8898 25.2097 68.989 25.1166C69.0882 25.0236 69.1874 24.8376 69.2866 24.6515C69.3858 24.4655 69.3858 24.2329 69.3858 24.0004Z" fill="#245FEE" stroke="#245FEE" stroke-width="0.3685" stroke-miterlimit="5" stroke-linejoin="bevel"/>
<path d="M74.7896 22.5124H72.9049V25.9077H72.3594V22.0938H74.8392V22.5124H74.7896Z" fill="#245FEE" stroke="#245FEE" stroke-width="0.3685" stroke-miterlimit="5" stroke-linejoin="bevel"/>
<path d="M78.1641 22.0934C78.4121 22.0934 78.6601 22.1399 78.8585 22.1864C79.0569 22.2329 79.2056 22.3259 79.3544 22.419C79.5032 22.512 79.5528 22.6515 79.652 22.7911C79.7016 22.9306 79.7512 23.1166 79.7512 23.2562C79.7512 23.4422 79.7016 23.5818 79.652 23.7213C79.6024 23.8608 79.5032 24.0004 79.3544 24.0934C79.2056 24.1864 79.0569 24.2794 78.8585 24.3259C78.6601 24.3725 78.4617 24.419 78.2137 24.419H77.569V25.8608H77.0234V22.0469H78.1641V22.0934ZM78.1641 24.0934C78.3129 24.0934 78.4617 24.0934 78.5609 24.0469C78.6601 24.0004 78.7593 23.9539 78.8585 23.8608C78.9577 23.7678 79.0073 23.7213 79.0569 23.6283C79.1064 23.5352 79.1065 23.4422 79.1065 23.3027C79.1065 23.0701 79.0073 22.8841 78.8585 22.7445C78.7097 22.605 78.4617 22.5585 78.1145 22.5585H77.4698V24.1399H78.1641V24.0934Z" fill="#245FEE" stroke="#245FEE" stroke-width="0.3685" stroke-miterlimit="5" stroke-linejoin="bevel"/>
<path d="M84.9595 25.9077H84.5131C84.4635 25.9077 84.4139 25.9077 84.4139 25.8612C84.4139 25.8147 84.3643 25.8147 84.3643 25.7682L83.9676 24.8379H82.1325L81.7358 25.7682C81.7358 25.8147 81.6862 25.8147 81.6862 25.8612C81.6862 25.9077 81.6366 25.9077 81.587 25.9077H81.1406L82.7773 22.0938H83.3228L84.9595 25.9077ZM83.8188 24.5124L83.174 22.9775C83.174 22.931 83.1245 22.8844 83.1245 22.8379C83.1245 22.7914 83.0749 22.6984 83.0749 22.6519C83.0253 22.7914 82.9757 22.931 82.9757 23.024L82.3309 24.5589H83.8188V24.5124Z" fill="#245FEE" stroke="#245FEE" stroke-width="0.3685" stroke-miterlimit="5" stroke-linejoin="bevel"/>
<path d="M91.307 22.0934V25.9073H90.8111V23.1166C90.8111 23.0701 90.8111 23.0236 90.8111 22.9771C90.8111 22.9306 90.8111 22.8841 90.8111 22.8376L89.4224 25.2097C89.3728 25.3027 89.3232 25.3492 89.224 25.3492H89.1248C89.0256 25.3492 88.976 25.3027 88.9264 25.2097L87.4881 22.7911C87.4881 22.8841 87.4881 22.9771 87.4881 23.0701V25.8608H86.9922V22.0469H87.389C87.4385 22.0469 87.4881 22.0469 87.4881 22.0469C87.5377 22.0469 87.5377 22.0934 87.5873 22.1399L88.976 24.512C88.976 24.5585 89.0256 24.605 89.0256 24.6515C89.0256 24.698 89.0752 24.7445 89.0752 24.7911C89.0752 24.7445 89.1248 24.698 89.1248 24.6515C89.1248 24.605 89.1744 24.5585 89.1744 24.512L90.5631 22.1399C90.5631 22.0934 90.6127 22.0934 90.6623 22.0469C90.7119 22.0469 90.7119 22.0469 90.7615 22.0469H91.307V22.0934Z" fill="#245FEE" stroke="#245FEE" stroke-width="0.3685" stroke-miterlimit="5" stroke-linejoin="bevel"/>
<path d="M98.1508 22.0934V25.9073H97.6548V23.1166C97.6548 23.0701 97.6548 23.0236 97.6548 22.9771C97.6548 22.9306 97.6548 22.8841 97.6548 22.8376L96.2661 25.2097C96.2165 25.3027 96.1669 25.3492 96.0677 25.3492H95.9686C95.8694 25.3492 95.8198 25.3027 95.7702 25.2097L94.3319 22.7911C94.3319 22.8841 94.3319 22.9771 94.3319 23.0701V25.8608H93.8359V22.0469H94.2327C94.2823 22.0469 94.3319 22.0469 94.3319 22.0469C94.3815 22.0469 94.3815 22.0934 94.4311 22.1399L95.8198 24.512C95.8198 24.5585 95.8694 24.605 95.8694 24.6515C95.8694 24.698 95.919 24.7445 95.919 24.7911C95.919 24.7445 95.9686 24.698 95.9686 24.6515C95.9686 24.605 96.0182 24.5585 96.0182 24.512L97.4068 22.1399C97.4068 22.0934 97.4564 22.0934 97.506 22.0469C97.5556 22.0469 97.5556 22.0469 97.6052 22.0469H98.1508V22.0934Z" fill="#245FEE" stroke="#245FEE" stroke-width="0.3685" stroke-miterlimit="5" stroke-linejoin="bevel"/>
<path d="M104.101 22.0938V25.9077H103.556V24.1868H101.374V25.9077H100.828V22.0938H101.374V23.8147H103.556V22.0938H104.101Z" fill="#245FEE" stroke="#245FEE" stroke-width="0.3685" stroke-miterlimit="5" stroke-linejoin="bevel"/>
<path d="M110.45 24.0004C110.45 24.2794 110.4 24.5585 110.301 24.7911C110.202 25.0236 110.053 25.2562 109.904 25.3957C109.755 25.5352 109.507 25.7213 109.259 25.8143C109.011 25.9073 108.714 25.9538 108.416 25.9538C108.119 25.9538 107.821 25.9073 107.573 25.8143C107.325 25.7213 107.127 25.5818 106.928 25.3957C106.73 25.2097 106.631 25.0236 106.532 24.7911C106.432 24.5585 106.383 24.2794 106.383 24.0004C106.383 23.7213 106.432 23.4422 106.532 23.2097C106.631 22.9771 106.78 22.7445 106.928 22.605C107.127 22.419 107.325 22.2794 107.573 22.1864C107.821 22.0934 108.069 22.0469 108.416 22.0469C108.714 22.0469 109.011 22.0934 109.259 22.1864C109.507 22.2794 109.706 22.419 109.904 22.605C110.102 22.7911 110.202 22.9771 110.301 23.2097C110.4 23.4422 110.45 23.7213 110.45 24.0004ZM109.904 24.0004C109.904 23.7678 109.855 23.5352 109.805 23.3492C109.755 23.1632 109.656 23.0236 109.507 22.8841C109.359 22.7445 109.21 22.6515 109.061 22.605C108.912 22.5585 108.664 22.512 108.466 22.512C108.267 22.512 108.069 22.5585 107.871 22.605C107.672 22.6515 107.524 22.7911 107.424 22.8841C107.276 23.0236 107.176 23.1632 107.127 23.3492C107.077 23.5352 107.028 23.7678 107.028 24.0004C107.028 24.2329 107.077 24.4655 107.127 24.6515C107.176 24.8376 107.276 24.9771 107.424 25.1166C107.573 25.2562 107.722 25.3492 107.871 25.3957C108.019 25.4422 108.267 25.4887 108.466 25.4887C108.664 25.4887 108.863 25.4422 109.061 25.3957C109.259 25.3492 109.408 25.2097 109.507 25.1166C109.656 24.9771 109.706 24.8376 109.805 24.6515C109.904 24.4655 109.904 24.2329 109.904 24.0004Z" fill="#245FEE" stroke="#245FEE" stroke-width="0.3685" stroke-miterlimit="5" stroke-linejoin="bevel"/>
<path d="M115.258 22.5124H113.374V25.9077H112.828V22.0938H115.308V22.5124H115.258Z" fill="#245FEE" stroke="#245FEE" stroke-width="0.3685" stroke-miterlimit="5" stroke-linejoin="bevel"/>
<path d="M121.012 24.0004C121.012 24.2794 120.963 24.5585 120.863 24.7911C120.764 25.0236 120.615 25.2562 120.467 25.3957C120.318 25.5352 120.07 25.7213 119.822 25.8143C119.574 25.9073 119.276 25.9538 118.979 25.9538C118.681 25.9538 118.384 25.9073 118.136 25.8143C117.888 25.7213 117.689 25.5818 117.491 25.3957C117.292 25.2097 117.193 25.0236 117.094 24.7911C116.995 24.5585 116.945 24.2794 116.945 24.0004C116.945 23.7213 116.995 23.4422 117.094 23.2097C117.193 22.9771 117.342 22.7445 117.491 22.605C117.689 22.419 117.888 22.2794 118.136 22.1864C118.384 22.0934 118.632 22.0469 118.979 22.0469C119.276 22.0469 119.574 22.0934 119.822 22.1864C120.07 22.2794 120.268 22.419 120.467 22.605C120.665 22.7911 120.764 22.9771 120.863 23.2097C120.963 23.4422 121.012 23.7213 121.012 24.0004ZM120.467 24.0004C120.467 23.7678 120.417 23.5352 120.367 23.3492C120.318 23.1632 120.219 23.0236 120.07 22.8841C119.921 22.7445 119.772 22.6515 119.623 22.605C119.475 22.5585 119.227 22.512 119.028 22.512C118.83 22.512 118.632 22.5585 118.433 22.605C118.235 22.6515 118.086 22.7911 117.987 22.8841C117.838 23.0236 117.739 23.1632 117.689 23.3492C117.64 23.5352 117.59 23.7678 117.59 24.0004C117.59 24.2329 117.64 24.4655 117.689 24.6515C117.739 24.8376 117.838 24.9771 117.987 25.1166C118.136 25.2562 118.284 25.3492 118.433 25.3957C118.582 25.4422 118.83 25.4887 119.028 25.4887C119.227 25.4887 119.425 25.4422 119.623 25.3957C119.822 25.3492 119.971 25.2097 120.07 25.1166C120.219 24.9771 120.268 24.8376 120.367 24.6515C120.467 24.4655 120.467 24.2329 120.467 24.0004Z" fill="#245FEE" stroke="#245FEE" stroke-width="0.3685" stroke-miterlimit="5" stroke-linejoin="bevel"/>
<path d="M130.192 24.0004C130.192 24.2794 130.142 24.5585 130.043 24.7911C129.944 25.0236 129.795 25.2562 129.646 25.3957C129.498 25.5352 129.25 25.7213 129.002 25.8143C128.754 25.9073 128.456 25.9538 128.158 25.9538C127.861 25.9538 127.563 25.9073 127.315 25.8143C127.067 25.7213 126.869 25.5818 126.671 25.3957C126.472 25.2097 126.373 25.0236 126.274 24.7911C126.175 24.5585 126.125 24.2794 126.125 24.0004C126.125 23.7213 126.175 23.4422 126.274 23.2097C126.373 22.9771 126.522 22.7445 126.671 22.605C126.869 22.419 127.067 22.2794 127.315 22.1864C127.563 22.0934 127.811 22.0469 128.158 22.0469C128.456 22.0469 128.754 22.0934 129.002 22.1864C129.25 22.2794 129.448 22.419 129.646 22.605C129.845 22.7911 129.944 22.9771 130.043 23.2097C130.142 23.4422 130.192 23.7213 130.192 24.0004ZM129.597 24.0004C129.597 23.7678 129.547 23.5352 129.498 23.3492C129.448 23.1632 129.349 23.0236 129.2 22.8841C129.051 22.7445 128.902 22.6515 128.754 22.605C128.605 22.5585 128.357 22.512 128.158 22.512C127.96 22.512 127.762 22.5585 127.563 22.605C127.365 22.6515 127.216 22.7911 127.117 22.8841C126.968 23.0236 126.869 23.1632 126.819 23.3492C126.77 23.5352 126.72 23.7678 126.72 24.0004C126.72 24.2329 126.77 24.4655 126.819 24.6515C126.869 24.8376 126.968 24.9771 127.117 25.1166C127.266 25.2562 127.414 25.3492 127.563 25.3957C127.712 25.4422 127.96 25.4887 128.158 25.4887C128.357 25.4887 128.555 25.4422 128.754 25.3957C128.952 25.3492 129.101 25.2097 129.2 25.1166C129.349 24.9771 129.398 24.8376 129.498 24.6515C129.597 24.4655 129.597 24.2329 129.597 24.0004Z" fill="#245FEE" stroke="#245FEE" stroke-width="0.3685" stroke-miterlimit="5" stroke-linejoin="bevel"/>
<path d="M133.863 23.722C134.11 23.722 134.309 23.7685 134.507 23.815C134.706 23.8616 134.854 23.9546 134.954 24.0476C135.053 24.1406 135.152 24.2336 135.202 24.3732C135.251 24.5127 135.301 24.6523 135.301 24.7918C135.301 24.9778 135.251 25.1174 135.202 25.2569C135.152 25.3964 135.053 25.536 134.904 25.629C134.805 25.722 134.656 25.815 134.458 25.8616C134.259 25.9081 134.061 25.9546 133.863 25.9546H132.523V22.1406H135.152V22.5592H133.069V23.722H133.863ZM133.863 25.4895C134.011 25.4895 134.16 25.4895 134.259 25.443C134.358 25.3964 134.458 25.3499 134.557 25.3034C134.606 25.2569 134.656 25.1639 134.706 25.0709C134.755 24.9778 134.755 24.8848 134.755 24.7918C134.755 24.6988 134.755 24.6057 134.706 24.5127C134.656 24.4197 134.606 24.3732 134.557 24.2802C134.507 24.1871 134.408 24.1871 134.259 24.1406C134.11 24.0941 134.011 24.0941 133.863 24.0941H133.069V25.443H133.863V25.4895Z" fill="#245FEE" stroke="#245FEE" stroke-width="0.3685" stroke-miterlimit="5" stroke-linejoin="bevel"/>
<path d="M140.162 25.4891V25.9077H137.633V22.0938H140.162V22.5124H138.178V23.7682H139.765V24.1868H138.178V25.4891H140.162Z" fill="#245FEE" stroke="#245FEE" stroke-width="0.3685" stroke-miterlimit="5" stroke-linejoin="bevel"/>
<path d="M145.262 25.1166C145.312 25.1166 145.312 25.1166 145.362 25.1632L145.56 25.3957C145.411 25.5818 145.213 25.7213 144.965 25.8143C144.717 25.9073 144.419 25.9538 144.122 25.9538C143.824 25.9538 143.576 25.9073 143.328 25.8143C143.08 25.7213 142.882 25.5818 142.733 25.3957C142.584 25.2097 142.435 25.0236 142.336 24.7911C142.237 24.5585 142.188 24.2794 142.188 24.0004C142.188 23.7213 142.237 23.4422 142.336 23.2097C142.435 22.9771 142.584 22.7445 142.733 22.605C142.931 22.419 143.13 22.2794 143.378 22.1864C143.626 22.0934 143.874 22.0469 144.171 22.0469C144.469 22.0469 144.717 22.0934 144.915 22.1864C145.114 22.2794 145.312 22.3725 145.51 22.5585L145.312 22.7911L145.262 22.8376H145.213C145.163 22.8376 145.114 22.8376 145.064 22.7911C145.014 22.7445 144.965 22.698 144.866 22.698C144.766 22.6515 144.667 22.605 144.568 22.5585C144.469 22.512 144.32 22.512 144.122 22.512C143.923 22.512 143.725 22.5585 143.527 22.605C143.328 22.6515 143.179 22.7911 143.08 22.8841C142.931 23.0236 142.832 23.1632 142.783 23.3492C142.733 23.5352 142.683 23.7678 142.683 24.0004C142.683 24.2329 142.733 24.4655 142.783 24.6515C142.832 24.8376 142.931 24.9771 143.08 25.1166C143.229 25.2562 143.378 25.3492 143.527 25.3957C143.675 25.4422 143.874 25.4887 144.072 25.4887C144.171 25.4887 144.32 25.4887 144.419 25.4887C144.518 25.4887 144.618 25.4422 144.667 25.4422C144.766 25.3957 144.816 25.3957 144.915 25.3492C145.014 25.3027 145.064 25.2562 145.114 25.2097C145.163 25.1632 145.213 25.1166 145.262 25.1166Z" fill="#245FEE" stroke="#245FEE" stroke-width="0.3685" stroke-miterlimit="5" stroke-linejoin="bevel"/>
<path d="M150.924 25.9077H150.379V22.5124H148.296V25.9077H147.75V22.0938H150.875V25.9077H150.924Z" fill="#245FEE" stroke="#245FEE" stroke-width="0.3685" stroke-miterlimit="5" stroke-linejoin="bevel"/>
<path d="M156.029 25.4891V25.9077H153.5V22.0938H156.029V22.5124H154.046V23.7682H155.633V24.1868H154.046V25.4891H156.029Z" fill="#245FEE" stroke="#245FEE" stroke-width="0.3685" stroke-miterlimit="5" stroke-linejoin="bevel"/>
<path d="M161.088 22.0938V25.9077H160.542V24.2333C160.344 24.2798 160.096 24.3263 159.898 24.3728C159.699 24.4193 159.501 24.4193 159.302 24.4193C159.104 24.4193 158.955 24.4193 158.806 24.3728C158.658 24.3263 158.509 24.2798 158.41 24.1868C158.31 24.0937 158.211 24.0007 158.162 23.8612C158.112 23.7217 158.062 23.5356 158.062 23.3496V22.0938H158.608V23.3496C158.608 23.5356 158.658 23.6751 158.707 23.7682C158.757 23.8612 158.906 23.9542 159.054 24.0007C159.203 24.0472 159.402 24.0472 159.65 24.0472C159.898 24.0472 160.146 24.0007 160.493 23.9077V22.0938H161.088Z" fill="#245FEE" stroke="#245FEE" stroke-width="0.3685" stroke-miterlimit="5" stroke-linejoin="bevel"/>
<path d="M166.248 25.4891V25.9077H163.719V22.0938H166.248V22.5124H164.264V23.7682H165.851V24.1868H164.264V25.4891H166.248Z" fill="#245FEE" stroke="#245FEE" stroke-width="0.3685" stroke-miterlimit="5" stroke-linejoin="bevel"/>
<path d="M171.851 22.0938V25.9077H171.306V24.1868H169.124V25.9077H168.578V22.0938H169.124V23.8147H171.306V22.0938H171.851Z" fill="#245FEE" stroke="#245FEE" stroke-width="0.3685" stroke-miterlimit="5" stroke-linejoin="bevel"/>
<path d="M177.805 22.0938V25.9077H177.259V23.21C177.259 23.117 177.259 23.0705 177.259 22.9775C177.259 22.8844 177.259 22.7914 177.309 22.6984C177.259 22.7914 177.259 22.8379 177.209 22.931C177.16 22.9775 177.16 23.0705 177.11 23.117L175.176 25.7682C175.126 25.8147 175.126 25.8612 175.077 25.8612C175.027 25.9077 174.978 25.9077 174.928 25.9077H174.531V22.0938H175.077V24.7914C175.077 24.8844 175.077 24.931 175.077 25.024C175.077 25.117 175.077 25.21 175.027 25.3031C175.077 25.21 175.077 25.1635 175.126 25.0705C175.176 25.024 175.176 24.931 175.226 24.8844L177.16 22.2333C177.209 22.1868 177.209 22.1403 177.259 22.1403C177.309 22.0937 177.358 22.0938 177.408 22.0938H177.805Z" fill="#245FEE" stroke="#245FEE" stroke-width="0.3685" stroke-miterlimit="5" stroke-linejoin="bevel"/>
<path d="M183.162 25.9073H182.616V24.2794H182.021C181.971 24.2794 181.922 24.2794 181.872 24.2794C181.822 24.2794 181.773 24.2794 181.723 24.3259C181.674 24.3725 181.624 24.3725 181.575 24.419C181.525 24.4655 181.475 24.512 181.426 24.5585L180.533 25.7213C180.483 25.7678 180.434 25.8143 180.384 25.8608C180.335 25.9073 180.235 25.9073 180.186 25.9073H179.789L180.831 24.512C180.93 24.3725 181.079 24.2329 181.227 24.1864C181.079 24.1399 180.93 24.0934 180.781 24.0469C180.632 24.0004 180.583 23.9073 180.483 23.8143C180.384 23.7213 180.335 23.6283 180.285 23.5352C180.235 23.4422 180.235 23.3027 180.235 23.1632C180.235 22.9771 180.285 22.8376 180.335 22.698C180.384 22.5585 180.483 22.4655 180.632 22.3725C180.731 22.2794 180.88 22.1864 181.079 22.1399C181.277 22.0934 181.475 22.0469 181.674 22.0469H183.013V25.9073H183.162ZM182.616 23.8608V22.512H181.822C181.674 22.512 181.525 22.512 181.426 22.5585C181.327 22.605 181.227 22.6515 181.128 22.698C181.029 22.7445 180.979 22.8376 180.979 22.9306C180.93 23.0236 180.93 23.1166 180.93 23.2097C180.93 23.3027 180.93 23.3957 180.979 23.4887C181.029 23.5818 181.079 23.6283 181.128 23.7213C181.178 23.8143 181.277 23.8143 181.426 23.8608C181.525 23.9073 181.674 23.9073 181.822 23.9073H182.616V23.8608Z" fill="#245FEE" stroke="#245FEE" stroke-width="0.3685" stroke-miterlimit="5" stroke-linejoin="bevel"/>
<path d="M87.7376 18.9302H82.6292C81.4389 18.9302 80.3478 18.6047 79.5047 18.0465C78.612 17.4419 78.116 16.5581 78.116 15.6279V6.83721C78.116 5.76744 76.6777 4.83721 74.9915 4.83721H65.3203V0H105.146V4.83721H95.4745C94.6314 4.83721 93.7882 5.06977 93.1931 5.48837C92.6475 5.86047 92.35 6.32558 92.35 6.83721V15.6279C92.2508 17.4419 90.2173 18.9302 87.7376 18.9302ZM66.6594 3.53488H74.8923C77.4217 3.53488 79.4551 5.02326 79.4551 6.83721V15.6279C79.4551 16.1395 79.7527 16.6047 80.2982 16.9767C80.8934 17.3953 81.7365 17.6279 82.5796 17.6279H87.688C89.3742 17.6279 90.8125 16.6977 90.8125 15.6279V6.83721C90.8125 5.90698 91.3085 5.06977 92.2012 4.4186C93.0443 3.81395 94.1354 3.53488 95.3257 3.53488H103.658V1.30233H66.6594V3.53488Z" fill="#245FEE"/>
<path fill-rule="evenodd" clip-rule="evenodd" d="M105.047 3.39535V16.0465C105.047 16.7907 105.493 17.4884 106.237 18.0465C106.981 18.5581 108.023 18.8837 109.114 18.8837H141.847C144.128 18.8837 145.963 17.6279 145.963 16.0465L146.112 15.6744L146.36 15.3023L146.906 15.1163C147.402 15.1163 147.848 15.2093 148.344 15.3488C148.344 15.3488 156.13 18.0465 157.321 18.5116C158.561 18.9302 160.445 19.0233 160.445 19.0233H183.606C184.053 19.0233 184.152 18.5581 183.656 18.4186C183.358 18.3256 182.664 18.0465 182.664 18.0465L163.421 11.0698C163.123 10.9767 162.181 10.5581 162.132 10.3256C162.082 10.093 162.627 9.39535 162.875 9.25581L179.788 0.790698C180.135 0.604651 180.184 0.0465116 179.54 0.0930233C178.845 0.139535 178.548 0.139535 178.548 0.139535C178.548 0.139535 168.877 0 168.232 0C167.587 0 166.347 0.186046 165.802 0.418605C165.256 0.651163 148.344 7.16279 148.344 7.16279C147.451 7.53488 146.558 7.62791 146.162 7.48837L145.914 7.02326V4.88372C145.914 4.4186 146.162 2.4186 144.723 1.11628C143.979 0.418605 143.781 0.372093 141.847 0H136.391C135.3 0 134.259 0.27907 133.515 0.837209C132.771 1.34884 132.324 2.04651 132.324 2.74419V0H109.114C108.023 0 106.932 0.232558 106.237 0.837209C105.493 1.48837 105.047 3.53488 105.047 3.39535ZM118.686 12.2791V6.65116C118.686 5.90698 119.132 5.2093 119.876 4.65116C120.62 4.13953 121.661 3.81395 122.753 3.81395L132.324 3.76744V12.2791C132.324 13.814 130.489 15.1163 128.208 15.1163H122.753C121.661 15.1163 120.62 14.8372 119.876 14.2791C119.132 13.7674 118.686 13.0233 118.686 12.2791Z" fill="#245FEE"/>
</g>
<defs>
<clipPath id="clip0_1202_7034">
<rect width="184" height="26" fill="white"/>
</clipPath>
</defs>
</svg>
