<svg width="24" height="24" viewBox="0 0 24 24" fill="none" xmlns="http://www.w3.org/2000/svg">
<path d="M22.5 8.25017V14.2502C22.5 14.4491 22.421 14.6399 22.2803 14.7805C22.1397 14.9212 21.9489 15.0002 21.75 15.0002H15.75C15.5511 15.0002 15.3603 14.9212 15.2197 14.7805C15.079 14.6399 15 14.4491 15 14.2502C15 14.0513 15.079 13.8605 15.2197 13.7198C15.3603 13.5792 15.5511 13.5002 15.75 13.5002H19.9313L17.835 11.418C16.6814 10.2638 15.2114 9.4777 13.6109 9.15905C12.0105 8.84041 10.3515 9.00356 8.84379 9.62786C7.33608 10.2522 6.04737 11.3096 5.14068 12.6663C4.23398 14.0231 3.75001 15.6183 3.75 17.2502C3.75 17.4491 3.67098 17.6399 3.53033 17.7805C3.38968 17.9212 3.19891 18.0002 3 18.0002C2.80109 18.0002 2.61032 17.9212 2.46967 17.7805C2.32902 17.6399 2.25 17.4491 2.25 17.2502C2.24997 15.3218 2.82178 13.4367 3.89312 11.8333C4.96446 10.2299 6.48721 8.98016 8.26881 8.24219C10.0504 7.50422 12.0108 7.31114 13.9022 7.68736C15.7935 8.06358 17.5308 8.9922 18.8944 10.3558L21 12.4474V8.25017C21 8.05126 21.079 7.86049 21.2197 7.71984C21.3603 7.57919 21.5511 7.50017 21.75 7.50017C21.9489 7.50017 22.1397 7.57919 22.2803 7.71984C22.421 7.86049 22.5 8.05126 22.5 8.25017Z" fill="#245FEE"/>
</svg>
