<svg width="26" height="23" viewBox="0 0 26 23" fill="none" xmlns="http://www.w3.org/2000/svg">
<path d="M24.9095 0.86433C24.7739 0.747264 24.6089 0.669408 24.4324 0.639148C24.2559 0.608889 24.0744 0.627374 23.9076 0.692612L1.74164 9.36714C1.4275 9.4893 1.16154 9.7102 0.983808 9.99658C0.806075 10.283 0.726185 10.6193 0.756167 10.9551C0.786149 11.2908 0.924378 11.6077 1.15005 11.858C1.37571 12.1084 1.67661 12.2787 2.00742 12.3432L7.7507 13.4709V19.8748C7.74957 20.2236 7.85323 20.5647 8.04825 20.8539C8.24327 21.1432 8.52065 21.3671 8.84445 21.4968C9.16776 21.6289 9.5233 21.6605 9.86486 21.5878C10.2064 21.515 10.5182 21.3412 10.7596 21.0889L13.529 18.2167L17.9226 22.0623C18.2396 22.3435 18.6484 22.4991 19.0721 22.4998C19.2578 22.4997 19.4423 22.4705 19.619 22.4134C19.9077 22.3218 20.1673 22.1561 20.3721 21.933C20.5768 21.7098 20.7196 21.4369 20.786 21.1414L25.2255 1.82792C25.2653 1.65374 25.2568 1.47204 25.2011 1.30229C25.1455 1.13254 25.0446 0.981144 24.9095 0.86433ZM18.2223 4.80183L8.42336 11.8193L2.99836 10.7551L18.2223 4.80183ZM9.5007 19.8748V14.6817L12.2121 17.0595L9.5007 19.8748ZM19.0743 20.7498L10.0312 12.8201L23.0468 3.49152L19.0743 20.7498Z" fill="#0C0707"/>
</svg>
