<svg width="20" height="16" viewBox="0 0 20 16" fill="none" xmlns="http://www.w3.org/2000/svg">
<path fill-rule="evenodd" clip-rule="evenodd" d="M1.30649 6.78027C6.4081 4.55758 9.80997 3.09225 11.5121 2.38428C16.372 0.36286 17.3819 0.0117185 18.0401 0.000123628C18.1849 -0.00242654 18.5086 0.0334509 18.7182 0.203585C18.8953 0.347242 18.944 0.541303 18.9673 0.677506C18.9906 0.813709 19.0196 1.12398 18.9966 1.36642C18.7332 4.13359 17.5936 10.8488 17.0139 13.948C16.7686 15.2595 16.2855 15.6992 15.8179 15.7422C14.8017 15.8357 14.03 15.0706 13.0457 14.4254C11.5054 13.4157 10.6353 12.7872 9.14025 11.802C7.41246 10.6634 8.53251 10.0376 9.51718 9.0149C9.77487 8.74725 14.2525 4.67448 14.3392 4.30501C14.35 4.2588 14.3601 4.08656 14.2578 3.99561C14.1554 3.90467 14.0044 3.93577 13.8954 3.9605C13.741 3.99556 11.2804 5.62188 6.51383 8.83947C5.81542 9.31905 5.18282 9.55272 4.61603 9.54048C3.99119 9.52698 2.78925 9.18718 1.89573 8.89673C0.799787 8.54049 -0.0712431 8.35214 0.00460414 7.74712C0.04411 7.43199 0.478073 7.10971 1.30649 6.78027Z" fill="white"/>
</svg>
