<svg width="46" height="46" viewBox="0 0 46 46" fill="none" xmlns="http://www.w3.org/2000/svg">
<path d="M40.25 11.5H31.625V10.0625C31.625 8.91875 31.1706 7.82185 30.3619 7.0131C29.5531 6.20435 28.4562 5.75 27.3125 5.75H18.6875C17.5438 5.75 16.4469 6.20435 15.6381 7.0131C14.8294 7.82185 14.375 8.91875 14.375 10.0625V11.5H5.75C4.9875 11.5 4.25623 11.8029 3.71707 12.3421C3.1779 12.8812 2.875 13.6125 2.875 14.375V34.5C2.875 35.2625 3.1779 35.9938 3.71707 36.5329C4.25623 37.0721 4.9875 37.375 5.75 37.375H40.25C41.0125 37.375 41.7438 37.0721 42.2829 36.5329C42.8221 35.9938 43.125 35.2625 43.125 34.5V14.375C43.125 13.6125 42.8221 12.8812 42.2829 12.3421C41.7438 11.8029 41.0125 11.5 40.25 11.5ZM17.25 10.0625C17.25 9.68125 17.4015 9.31562 17.671 9.04603C17.9406 8.77645 18.3063 8.625 18.6875 8.625H27.3125C27.6937 8.625 28.0594 8.77645 28.329 9.04603C28.5986 9.31562 28.75 9.68125 28.75 10.0625V11.5H17.25V10.0625ZM40.25 14.375V20.125H34.5V18.6875C34.5 18.3063 34.3486 17.9406 34.079 17.671C33.8094 17.4015 33.4437 17.25 33.0625 17.25C32.6813 17.25 32.3156 17.4015 32.046 17.671C31.7764 17.9406 31.625 18.3063 31.625 18.6875V20.125H14.375V18.6875C14.375 18.3063 14.2235 17.9406 13.954 17.671C13.6844 17.4015 13.3187 17.25 12.9375 17.25C12.5563 17.25 12.1906 17.4015 11.921 17.671C11.6515 17.9406 11.5 18.3063 11.5 18.6875V20.125H5.75V14.375H40.25ZM40.25 34.5H5.75V23H11.5V24.4375C11.5 24.8187 11.6515 25.1844 11.921 25.454C12.1906 25.7236 12.5563 25.875 12.9375 25.875C13.3187 25.875 13.6844 25.7236 13.954 25.454C14.2235 25.1844 14.375 24.8187 14.375 24.4375V23H31.625V24.4375C31.625 24.8187 31.7764 25.1844 32.046 25.454C32.3156 25.7236 32.6813 25.875 33.0625 25.875C33.4437 25.875 33.8094 25.7236 34.079 25.454C34.3486 25.1844 34.5 24.8187 34.5 24.4375V23H40.25V34.5Z" fill="#FEFEFE"/>
</svg>
