<svg width="18" height="20" viewBox="0 0 18 20" fill="none" xmlns="http://www.w3.org/2000/svg">
<path d="M16.6555 9.46967C16.7253 9.53932 16.7806 9.62204 16.8183 9.71309C16.8561 9.80414 16.8755 9.90173 16.8755 10.0003C16.8755 10.0989 16.8561 10.1964 16.8183 10.2875C16.7806 10.3785 16.7253 10.4613 16.6555 10.5309L8.96334 18.2184C7.9786 19.203 6.64306 19.7561 5.25051 19.756C3.85797 19.756 2.52249 19.2027 1.53787 18.2179C0.553259 17.2332 0.000156258 15.8977 0.000244151 14.5051C0.000332044 13.1126 0.553603 11.7771 1.53834 10.7925L10.844 1.34998C11.547 0.646202 12.5008 0.250528 13.4956 0.250001C14.4903 0.249473 15.4446 0.644136 16.1483 1.34717C16.8521 2.0502 17.2478 3.00401 17.2483 3.99877C17.2488 4.99354 16.8542 5.94776 16.1512 6.65154L6.84366 16.094C6.42097 16.5167 5.84768 16.7542 5.24991 16.7542C4.65213 16.7542 4.07884 16.5167 3.65616 16.094C3.23347 15.6714 2.996 15.0981 2.996 14.5003C2.996 13.9025 3.23347 13.3292 3.65616 12.9065L11.4655 4.97342C11.5339 4.90044 11.6163 4.84188 11.7076 4.8012C11.799 4.76051 11.8976 4.73851 11.9976 4.7365C12.0976 4.73448 12.197 4.7525 12.29 4.78947C12.3829 4.82645 12.4675 4.88165 12.5388 4.95181C12.6101 5.02198 12.6666 5.1057 12.7051 5.19804C12.7435 5.29038 12.7631 5.38948 12.7627 5.4895C12.7623 5.58953 12.7419 5.68846 12.7026 5.78048C12.6634 5.87249 12.6062 5.95573 12.5343 6.02529L4.72397 13.9669C4.65404 14.0362 4.59846 14.1187 4.5604 14.2096C4.52235 14.3004 4.50256 14.3979 4.50216 14.4964C4.50177 14.5949 4.52079 14.6925 4.55812 14.7836C4.59545 14.8748 4.65037 14.9577 4.71975 15.0276C4.78912 15.0976 4.87159 15.1531 4.96245 15.1912C5.0533 15.2293 5.15076 15.2491 5.24927 15.2494C5.34777 15.2498 5.44538 15.2308 5.53654 15.1935C5.62769 15.1562 5.7106 15.1012 5.78053 15.0319L15.0871 5.59404C15.5098 5.17222 15.7476 4.59977 15.7482 4.00261C15.7488 3.40545 15.5122 2.83251 15.0904 2.40982C14.6686 1.98713 14.0961 1.74932 13.4989 1.74871C12.9018 1.74809 12.3288 1.98472 11.9062 2.40654L2.60241 11.8453C2.25387 12.1933 1.97729 12.6065 1.78845 13.0614C1.59961 13.5162 1.50221 14.0039 1.50182 14.4964C1.50143 14.9889 1.59805 15.4767 1.78616 15.9318C1.97428 16.387 2.2502 16.8007 2.59819 17.1492C2.94617 17.4977 3.35939 17.7743 3.81427 17.9632C4.26914 18.152 4.75675 18.2494 5.24927 18.2498C5.74178 18.2502 6.22955 18.1536 6.68472 17.9654C7.13989 17.7773 7.55356 17.5014 7.90209 17.1534L15.5952 9.46592C15.7364 9.32587 15.9273 9.24759 16.1262 9.24829C16.325 9.249 16.5154 9.32862 16.6555 9.46967Z" fill="#245FEE"/>
</svg>
