<svg width="46" height="46" viewBox="0 0 46 46" fill="none" xmlns="http://www.w3.org/2000/svg">
<path d="M10.0625 17.25V28.75C10.0625 29.1312 9.91105 29.4969 9.64147 29.7665C9.37188 30.0361 9.00625 30.1875 8.625 30.1875C8.24375 30.1875 7.87812 30.0361 7.60853 29.7665C7.33895 29.4969 7.1875 29.1312 7.1875 28.75V17.25C7.1875 16.8688 7.33895 16.5031 7.60853 16.2335C7.87812 15.964 8.24375 15.8125 8.625 15.8125C9.00625 15.8125 9.37188 15.964 9.64147 16.2335C9.91105 16.5031 10.0625 16.8688 10.0625 17.25ZM15.8125 4.3125C15.4313 4.3125 15.0656 4.46395 14.796 4.73353C14.5265 5.00312 14.375 5.36875 14.375 5.75V40.25C14.375 40.6312 14.5265 40.9969 14.796 41.2665C15.0656 41.5361 15.4313 41.6875 15.8125 41.6875C16.1937 41.6875 16.5594 41.5361 16.829 41.2665C17.0985 40.9969 17.25 40.6312 17.25 40.25V5.75C17.25 5.36875 17.0985 5.00312 16.829 4.73353C16.5594 4.46395 16.1937 4.3125 15.8125 4.3125ZM23 10.0625C22.6188 10.0625 22.2531 10.214 21.9835 10.4835C21.714 10.7531 21.5625 11.1188 21.5625 11.5V34.5C21.5625 34.8812 21.714 35.2469 21.9835 35.5165C22.2531 35.7861 22.6188 35.9375 23 35.9375C23.3812 35.9375 23.7469 35.7861 24.0165 35.5165C24.2861 35.2469 24.4375 34.8812 24.4375 34.5V11.5C24.4375 11.1188 24.2861 10.7531 24.0165 10.4835C23.7469 10.214 23.3812 10.0625 23 10.0625ZM30.1875 15.8125C29.8063 15.8125 29.4406 15.964 29.171 16.2335C28.9014 16.5031 28.75 16.8688 28.75 17.25V28.75C28.75 29.1312 28.9014 29.4969 29.171 29.7665C29.4406 30.0361 29.8063 30.1875 30.1875 30.1875C30.5687 30.1875 30.9344 30.0361 31.204 29.7665C31.4736 29.4969 31.625 29.1312 31.625 28.75V17.25C31.625 16.8688 31.4736 16.5031 31.204 16.2335C30.9344 15.964 30.5687 15.8125 30.1875 15.8125ZM37.375 12.9375C36.9938 12.9375 36.6281 13.089 36.3585 13.3585C36.0889 13.6281 35.9375 13.9938 35.9375 14.375V31.625C35.9375 32.0062 36.0889 32.3719 36.3585 32.6415C36.6281 32.9111 36.9938 33.0625 37.375 33.0625C37.7562 33.0625 38.1219 32.9111 38.3915 32.6415C38.6611 32.3719 38.8125 32.0062 38.8125 31.625V14.375C38.8125 13.9938 38.6611 13.6281 38.3915 13.3585C38.1219 13.089 37.7562 12.9375 37.375 12.9375Z" fill="#FEFEFE"/>
</svg>
