<svg width="120" height="78" viewBox="0 0 120 78" fill="none" xmlns="http://www.w3.org/2000/svg">
<path fill-rule="evenodd" clip-rule="evenodd" d="M59.5759 61.9568C65.0159 66.9571 72.3212 69.9901 80.2674 69.9901C97.3328 69.9901 111.145 56.105 111.145 39.0272C111.145 21.8975 97.3328 8.01172 80.2674 8.01172C72.3212 8.01172 65.0159 11.0441 59.5759 16.045C53.3364 21.7372 49.3896 29.9301 49.3896 39.0272C49.3903 48.1243 53.3364 56.3178 59.5759 61.9568Z" fill="#E9B040"/>
<path fill-rule="evenodd" clip-rule="evenodd" d="M107.132 56.2531C107.132 55.7107 107.518 55.2773 108 55.2773C108.53 55.2773 108.915 55.7113 108.915 56.2531C108.915 56.8505 108.529 57.2838 108 57.2838C107.518 57.2838 107.132 56.8505 107.132 56.2531ZM108 57.0675C108.386 57.0675 108.722 56.6871 108.722 56.2538C108.722 55.8204 108.385 55.495 108 55.495C107.661 55.495 107.325 55.8204 107.325 56.2538C107.325 56.6871 107.662 57.0675 108 57.0675ZM107.903 56.742H107.71V55.8198H108.047C108.096 55.8198 108.193 55.8198 108.24 55.8747C108.337 55.9283 108.337 55.9832 108.337 56.0917C108.337 56.2002 108.289 56.3087 108.193 56.3087L108.386 56.7426H108.144L108.047 56.3623H107.903V56.742V56.1995H108.096C108.144 56.1995 108.144 56.1447 108.144 56.091C108.144 56.0362 108.144 56.0362 108.096 55.9826H107.903V56.742Z" fill="#E9B040"/>
<path fill-rule="evenodd" clip-rule="evenodd" d="M69.5175 35.7294C69.4112 34.6123 69.1986 33.5485 68.9859 32.4309H50.1753C50.388 31.3139 50.7069 30.2501 51.0252 29.1856H68.0829C67.7126 28.0657 67.287 26.9649 66.8077 25.8872H52.3542C52.8858 24.7603 53.4711 23.6596 54.1078 22.5887H65.0015C64.3006 21.4525 63.5194 20.368 62.6638 19.3435H56.4462C57.4079 18.1676 58.4558 17.065 59.5813 16.045C54.1084 11.0973 46.8814 8.01172 38.9108 8.01172C21.9601 8.01172 8.14453 21.8975 8.14453 39.0272C8.14453 56.105 21.9601 69.9901 38.9108 69.9901C46.8814 69.9901 54.1078 66.9571 59.5813 61.9568C60.6895 60.9546 61.72 59.8695 62.6638 58.7109H56.4462C55.5956 57.6471 54.852 56.5833 54.1078 55.4124H65.0015C65.6865 54.3605 66.2905 53.2578 66.8083 52.114H52.3542C51.8758 51.0502 51.398 49.9864 51.0252 48.8681H68.0829C68.4543 47.8043 68.7208 46.6879 68.9853 45.5697C69.1979 44.5059 69.4106 43.3895 69.5169 42.2712C69.6246 41.1926 69.678 40.1093 69.677 39.0253C69.677 37.9102 69.6238 36.7932 69.5175 35.7294Z" fill="#CC2131"/>
<path fill-rule="evenodd" clip-rule="evenodd" d="M107.132 46.2448C107.132 45.6642 107.518 45.2422 108 45.2422C108.53 45.2422 108.915 45.6649 108.915 46.2448C108.915 46.7732 108.529 47.2487 108 47.2487C107.518 47.2487 107.132 46.7725 107.132 46.2448ZM108 46.9839C108.386 46.9839 108.722 46.6669 108.722 46.2448C108.722 45.8228 108.385 45.5057 108 45.5057C107.661 45.5057 107.325 45.8228 107.325 46.2448C107.325 46.6669 107.662 46.9839 108 46.9839ZM107.903 46.6669H107.71V45.8221H108.24C108.337 45.8756 108.337 45.9813 108.337 46.0869C108.337 46.1391 108.289 46.2448 108.193 46.2983L108.386 46.6675H108.144L108.047 46.3505H107.903V46.6669V46.192H108C108.047 46.192 108.096 46.192 108.096 46.1385C108.144 46.1385 108.144 46.0863 108.144 46.0329C108.144 46.0329 108.144 45.9806 108.096 45.9806C108.096 45.9272 108.047 45.9806 108 45.9806H107.903V46.6669Z" fill="white"/>
<path fill-rule="evenodd" clip-rule="evenodd" d="M49.2458 47.9405C48.234 48.205 47.488 48.3647 46.7427 48.3647C45.1448 48.3647 44.1857 47.3571 44.1857 45.5547C44.1857 45.1841 44.239 44.8129 44.2923 44.3887L44.5054 43.1702L44.6653 42.1626L46.1033 33.4693H49.299L48.9261 35.3778H50.9502L50.4707 38.5584H48.4465L47.5946 43.7529C47.5413 44.0187 47.5413 44.1772 47.5413 44.2832C47.5413 44.9726 47.861 45.2372 48.6596 45.2372C49.0326 45.2372 49.3517 45.1847 49.6714 45.1311L49.2458 47.9405ZM59.579 47.8344C58.4074 48.1526 57.3423 48.3111 56.1701 48.3111C52.5481 48.3111 50.4707 46.4026 50.4707 42.6399C50.4707 38.2396 52.9211 35.059 56.3293 35.059C59.0455 35.059 60.8033 36.8614 60.8033 39.6702C60.8033 40.6253 60.6967 41.5262 60.4309 42.7984H53.773C53.7197 43.0105 53.7197 43.1165 53.7197 43.2226C53.7197 44.7068 54.7314 45.4487 56.649 45.4487C57.8739 45.4487 58.939 45.1841 60.1112 44.6544L59.579 47.8344ZM57.6081 40.2541V39.6177C57.6081 38.5578 57.022 37.9744 56.0103 37.9744C54.9446 37.9744 54.1992 38.7692 53.8795 40.2535L57.6081 40.2541ZM23.6797 48.099H20.3774L22.295 36.0665L17.9809 48.099H15.691L15.4246 36.1196L13.4004 48.099H10.1514L12.761 32.4617H17.6079L17.7145 42.1102L20.9635 32.4617H26.29L23.6797 48.099ZM31.723 42.4278C31.4033 42.3741 31.2968 42.3741 31.0836 42.3741C29.166 42.3741 28.2076 43.1159 28.2076 44.2826C28.2076 45.0781 28.6871 45.6084 29.4325 45.6084C31.0303 45.6084 31.6691 44.2826 31.723 42.4278ZM34.3859 48.099H31.5099L31.5632 46.7744C30.8172 47.7808 29.8054 48.3111 28.0477 48.3111C26.4498 48.3111 25.0651 46.8805 25.0651 44.8129C25.0651 44.2302 25.1717 43.7005 25.3315 43.1702C25.8637 41.2081 27.8346 39.9896 30.8705 39.9359C31.2435 39.9359 31.829 39.9359 32.3618 39.9896C32.4677 39.5653 32.4677 39.4056 32.4677 39.1411C32.4677 38.2926 31.7757 38.0274 30.2311 38.0274C29.2726 38.0274 28.2069 38.1865 27.4616 38.4517L26.982 38.5577L26.7689 38.6102L27.2485 35.7477C28.7931 35.2705 29.9114 35.059 31.1369 35.059C34.013 35.059 35.5576 36.3841 35.5576 38.8223C35.5576 39.4587 35.6108 39.9359 35.3977 41.3141L34.6524 45.8729L34.5458 46.6684L34.4925 47.3047L34.4392 47.729L34.3859 48.099ZM75.6643 35.4832C76.6228 35.4832 77.4753 35.7484 78.6469 36.3311L79.2324 32.9383C78.9127 32.7792 78.8062 32.7792 78.3805 32.6202L77.0497 32.2489C76.6234 32.1429 76.0912 32.0898 75.5045 32.0898C73.8527 32.0898 72.8942 32.1429 71.8831 32.7262C71.3502 33.0974 70.6576 33.5747 69.9116 34.4226L69.4853 34.3165L66.0764 36.7017L66.2369 35.3765H62.7208L60.6447 48.0983H64.0009L65.2252 41.2611C65.2252 41.2611 65.7053 40.3059 65.9178 39.989C66.5572 39.1935 67.0895 39.1935 67.7815 39.1935H68.0486C67.9368 40.0014 67.8831 40.8162 67.8881 41.6317C67.8881 45.7662 70.2313 48.3641 73.8533 48.3641C74.7591 48.3641 75.559 48.258 76.7833 47.9399L77.37 44.3356C76.305 44.9183 75.3459 45.1835 74.5466 45.1835C72.5764 45.1835 71.4035 43.6993 71.4035 41.3671C71.4023 37.9214 73.1606 35.4832 75.6643 35.4832ZM103.945 32.4617L103.201 36.9144C102.401 35.6953 101.442 35.112 100.164 35.112C98.4057 35.112 96.7552 36.1189 95.7428 38.0274V37.975L93.6127 36.7023L93.8258 35.3771H90.2571L88.233 48.099H91.5353L92.6542 41.2617C92.6542 41.2617 93.5061 40.3065 93.7193 39.9896C94.2521 39.3532 94.7843 39.2465 95.2106 39.1941C94.8382 40.2541 94.6251 41.5262 94.6251 42.9581C94.6251 46.1387 96.2756 48.2587 98.7254 48.2587C99.9509 48.2587 100.909 47.8344 101.815 46.8268L101.655 48.099H104.798L107.355 32.4617H103.945ZM99.845 45.0781C98.726 45.0781 98.1405 44.2302 98.1405 42.5862C98.1405 40.0944 99.2056 38.2926 100.75 38.2926C101.921 38.2926 102.508 39.1941 102.508 40.7844C102.508 43.3287 101.443 45.0781 99.845 45.0781ZM84.453 42.4278C84.1333 42.3741 84.0267 42.3741 83.8136 42.3741C81.8947 42.3741 80.9363 43.1159 80.9363 44.2826C80.9363 45.0781 81.4164 45.6084 82.1618 45.6084C83.7597 45.6084 84.3991 44.2826 84.453 42.4278ZM87.1159 48.099H84.1859L84.2925 46.7744C83.5471 47.7808 82.5341 48.3111 80.7777 48.3111C79.1259 48.3111 77.6885 46.9329 77.6885 44.8129C77.6885 41.792 79.9778 39.9366 83.5998 39.9366C83.9734 39.9366 84.5583 39.9366 85.0385 39.9902C85.145 39.566 85.1989 39.4062 85.1989 39.1417C85.1989 38.2932 84.5063 38.0281 82.9084 38.0281C82.0026 38.0281 80.8842 38.1872 80.1389 38.4523L79.7126 38.5584L79.4995 38.6108L79.9784 35.7484C81.5236 35.2711 82.6426 35.0596 83.8668 35.0596C86.7429 35.0596 88.2342 36.3847 88.2342 38.8229C88.2342 39.4593 88.3408 39.9366 88.075 41.3147L87.3823 45.8735L87.2757 46.669L87.1692 47.3054L87.1165 47.7296V48.099H87.1159ZM41.3629 38.0805C42.0023 38.0805 42.9075 38.1335 43.8666 38.2926L44.3462 35.3241C43.3871 35.218 42.1089 35.059 41.3629 35.059C37.635 35.059 36.4101 37.0735 36.4101 39.4056C36.4101 40.9435 37.1021 42.0559 38.9132 42.9038C40.2446 43.5402 40.4578 43.6456 40.4578 44.2296C40.4578 45.0238 39.7657 45.5017 38.4869 45.5017C37.4751 45.5017 36.516 45.342 35.451 44.9714L35.078 47.8862L35.1307 47.9399L35.7701 48.0459C35.9832 48.0983 36.2496 48.152 36.6226 48.2044C37.4212 48.258 38.1139 48.3105 38.5402 48.3105C42.2688 48.3105 43.8134 46.8799 43.8134 44.0698C43.8134 42.3211 42.9608 41.2611 41.3097 40.5193C39.8716 39.8823 39.7118 39.7775 39.7118 39.1935C39.7118 38.6108 40.3512 38.0805 41.3629 38.0805Z" fill="#1B3771"/>
<path fill-rule="evenodd" clip-rule="evenodd" d="M79.9726 31.7823L79.3863 35.2217C78.2154 34.6303 77.3634 34.3621 76.4056 34.3621C73.9035 34.3621 72.1476 36.8338 72.1476 40.3269C72.1476 42.7455 73.3184 44.1957 75.2886 44.1957C76.0861 44.1957 77.0446 43.9275 78.1089 43.3906L77.5238 46.9899C76.2991 47.3125 75.501 47.4744 74.5957 47.4744C70.9767 47.4744 68.7409 44.8408 68.7409 40.5963C68.7409 34.9535 71.8281 30.9766 76.2458 30.9766C76.8309 30.9766 77.3628 31.0303 77.7888 31.1378L79.12 31.4604C79.5466 31.6217 79.6531 31.6754 79.9726 31.7823ZM69.2201 34.1471H68.9006C67.7837 34.1471 67.1447 34.6847 66.1329 36.2425L66.4524 34.254H63.4179L61.3431 47.1512H64.6971C65.9206 39.2517 66.2401 37.9084 67.8369 37.9084H68.0499C68.3694 36.35 68.7948 35.221 69.3273 34.2002L69.2201 34.1471ZM49.9522 46.9899C49.0476 47.3125 48.3021 47.42 47.5573 47.42C45.8539 47.42 44.8954 46.453 44.8954 44.5727C44.8954 44.2501 44.9487 43.8207 45.0019 43.4437L45.2149 42.1541L45.3747 41.1339L46.8118 32.3199H50.1119L49.7392 34.2546H51.4425L51.0165 37.4252H49.3132L48.4086 42.7992C48.3554 43.0143 48.3554 43.1762 48.3554 43.3368C48.3554 43.9819 48.6749 44.2507 49.473 44.2507C49.8457 44.2507 50.1646 44.2507 50.3776 44.1432L49.9522 46.9899ZM37.1242 38.3384C37.1242 39.9512 37.8691 41.0789 39.6257 41.9391C41.0095 42.5842 41.2225 42.7986 41.2225 43.3362C41.2225 44.1426 40.6368 44.5183 39.3062 44.5183C38.2951 44.5183 37.3899 44.3576 36.3255 44.0351L35.8463 46.9899L36.006 47.0443L36.5918 47.1518C36.8041 47.205 37.071 47.2594 37.4964 47.2594C38.2412 47.3669 38.8802 47.3669 39.3062 47.3669C42.8187 47.3669 44.4694 46.0229 44.4694 43.068C44.4694 41.294 43.7778 40.2725 42.1278 39.4674C40.6907 38.8223 40.5309 38.6616 40.5309 38.0703C40.5309 37.372 41.1167 37.0495 42.181 37.0495C42.82 37.0495 43.7246 37.1032 44.5766 37.2108L45.0552 34.2553C44.2038 34.094 42.8732 33.9865 42.1278 33.9865C38.4016 33.9858 37.071 35.9743 37.1242 38.3384ZM105.469 47.1518H102.328L102.488 45.9154C101.583 46.8824 100.624 47.3125 99.3997 47.3125C96.9515 47.3125 95.3546 45.2178 95.3546 41.9935C95.3546 37.694 97.8567 34.0396 100.784 34.0396C102.115 34.0396 103.073 34.6309 103.978 35.813L104.723 31.2991H108.023L105.469 47.1518ZM100.571 44.1426C102.115 44.1426 103.18 42.3154 103.18 39.7893C103.18 38.1234 102.593 37.2633 101.423 37.2633C99.9322 37.2633 98.8152 39.0367 98.8152 41.5628C98.8152 43.2831 99.4003 44.1426 100.571 44.1426ZM60.1716 46.8824C59.0001 47.2594 57.9358 47.42 56.7117 47.42C52.9855 47.42 51.0692 45.4322 51.0692 41.6165C51.0692 37.2101 53.518 33.9321 56.8714 33.9321C59.6391 33.9321 61.3951 35.7593 61.3951 38.6072C61.3951 39.5749 61.2886 40.4888 60.9691 41.8316H54.37C54.3167 41.9935 54.3167 42.101 54.3167 42.2085C54.3167 43.7131 55.3284 44.4651 57.2442 44.4651C58.4683 44.4651 59.5326 44.2501 60.7041 43.6587L60.1716 46.8824ZM58.3085 39.198V38.5535C58.3085 37.4789 57.7228 36.8876 56.7117 36.8876C55.6473 36.8876 54.9018 37.694 54.5823 39.198H58.3085ZM24.4028 47.1518H21.1026L23.0189 34.9529L18.7077 47.1518H16.4186L16.1523 35.0604L14.1301 47.1518H11.043L13.6509 31.2991H18.4414L18.6012 41.1333L21.7942 31.2991H27.0107L24.4028 47.1518ZM32.6532 41.4015C32.3337 41.4015 32.174 41.3483 31.9077 41.3483C30.0447 41.3483 29.0868 42.0466 29.0868 43.3362C29.0868 44.1426 29.5128 44.6258 30.2577 44.6258C31.6415 44.6258 32.6 43.3362 32.6532 41.4015ZM35.1014 47.1518H32.3331L32.3863 45.8079C31.5344 46.8824 30.4168 47.3669 28.8732 47.3669C27.0633 47.3669 25.8393 45.9698 25.8393 43.8738C25.8393 40.7039 27.968 38.8767 31.6941 38.8767C32.0669 38.8767 32.5461 38.9304 33.078 38.9836C33.1845 38.5541 33.1845 38.3928 33.1845 38.1778C33.1845 37.3183 32.5987 36.9957 31.0551 36.9957C30.0973 36.9957 29.0323 37.1032 28.2874 37.3183L27.8082 37.4796L27.4887 37.5333L27.968 34.6316C29.618 34.1477 30.7356 33.9865 31.9604 33.9865C34.8345 33.9865 36.3781 35.2761 36.3781 37.7477C36.3781 38.3928 36.3249 38.8767 36.1119 40.3275L35.3664 44.8958L35.2599 45.701L35.2067 46.3461L35.1534 46.8306L35.1014 47.1518ZM85.3489 41.4015C84.9755 41.4015 84.8164 41.3483 84.604 41.3483C82.6877 41.3483 81.7286 42.0466 81.7286 43.3362C81.7286 44.1426 82.2085 44.6258 82.9533 44.6258C84.2845 44.6258 85.295 43.3362 85.3489 41.4015ZM87.7971 47.1518H85.0294L85.082 45.8079C84.2307 46.8824 83.1131 47.3669 81.5695 47.3669C79.7596 47.3669 78.5349 45.9698 78.5349 43.8738C78.5349 40.7039 80.6636 38.8767 84.3898 38.8767C84.7632 38.8767 85.2424 38.9304 85.721 38.9836C85.8275 38.5541 85.8814 38.3928 85.8814 38.1778C85.8814 37.3183 85.295 36.9957 83.7527 36.9957C82.7936 36.9957 81.6766 37.1032 80.9311 37.3183L80.5051 37.4796L80.1856 37.5333L80.6642 34.6316C82.315 34.1477 83.4319 33.9865 84.6566 33.9865C87.5308 33.9865 89.0212 35.2761 89.0212 37.7477C89.0212 38.3928 89.0212 38.8767 88.7556 40.3275L88.0633 44.8958L87.9568 45.701L87.8503 46.3461L87.7977 46.8306L87.7971 47.1518ZM96.7391 34.1471H96.4196C95.3027 34.1471 94.6637 34.6847 93.6519 36.2425L93.9714 34.254H90.9369L88.914 47.1512H92.2142C93.4389 39.2517 93.7584 37.9084 95.3553 37.9084H95.5683C95.8878 36.35 96.3131 35.221 96.8456 34.2002L96.7391 34.1471Z" fill="white"/>
</svg>
