<svg width="163" height="78" viewBox="0 0 163 78" fill="none" xmlns="http://www.w3.org/2000/svg">
<g clip-path="url(#clip0_1012_87029)">
<path d="M67.1831 67.8495C66.9052 67.0925 66.4017 66.5765 66.037 65.9055C65.1514 64.7529 64.1096 63.7551 63.0677 62.7574C62.703 62.6369 62.5468 62.2929 62.1995 62.1552C61.9737 61.8628 61.6091 61.708 61.3139 61.4843C60.7235 61.037 60.081 60.6586 59.4212 60.2801C58.1709 59.4888 56.6255 58.9899 55.0974 58.4738C53.4478 58.0781 51.7114 57.7857 49.9055 57.5448C48.1169 57.2868 46.3284 57.0459 44.974 56.3406C44.1926 56.117 43.6196 55.6869 42.9423 55.3428C42.3172 54.9299 41.64 54.5859 41.1191 54.0698C40.4766 53.6913 40.0772 53.0548 39.5736 52.5387C39.4 52.1946 39.1048 51.9882 38.9659 51.6097C38.7922 51.5409 38.7402 51.3345 38.636 51.2141C38.5144 51.0764 38.5144 50.8012 38.306 50.7496C38.2019 51.4549 38.2366 52.2979 38.306 53.0204C38.3929 53.3301 38.4276 53.7085 38.5144 54.0182C38.5665 54.2934 38.827 54.7407 38.7228 54.9471C33.3051 54.6719 29.346 52.9688 25.9079 50.7324C24.2061 49.6142 22.7475 48.2551 21.3931 46.7929C20.8027 45.9843 20.1602 45.2102 19.6393 44.3156C19.101 43.4383 18.6495 42.4405 18.1633 41.5115C17.3646 39.4988 16.6179 37.4344 16.3401 34.9055C15.9754 32.5487 16.0622 29.5382 16.6005 27.3534C16.7915 26.1491 17.1909 25.1342 17.5382 24.0848C17.7639 23.6031 18.007 23.1214 18.2154 22.6225C18.5106 22.2096 18.6669 21.6419 19.0315 21.2807C20.0213 19.4399 21.4973 18.0637 23.008 16.739C24.6402 15.552 26.4982 14.5887 28.7382 14.0038C30.8914 13.5221 33.826 13.436 36.1529 13.9349C40.876 14.8983 44.4357 16.9971 47.4224 19.6808C50.4438 22.3129 52.7706 25.6503 54.3681 29.7102C56.0177 33.5637 56.5908 39.5676 55.1148 43.9372C54.507 43.5931 53.8993 43.2662 53.2915 42.9394C52.5622 42.7329 51.8503 42.4921 50.9994 42.4061C49.9749 42.3889 48.9678 42.4061 48.3079 42.7329C49.645 42.5953 50.7216 42.9566 51.5551 43.2662C52.0413 43.4555 52.3191 43.5759 52.7011 43.7995C53.4478 44.2296 54.1077 44.6253 54.6633 45.2102C56.2435 46.5864 57.3722 48.41 57.9105 50.8184C57.9105 50.8872 57.9973 50.87 57.9799 50.7496C58.0494 50.7324 58.0841 50.6808 58.1188 50.612C58.2057 50.5087 58.3098 50.4055 58.3967 50.2851C58.5703 50.0787 58.744 49.8722 58.8655 49.6142C59.2302 49.1841 59.5254 48.7024 59.8032 48.2035C60.4457 47.2746 60.9319 46.208 61.4875 45.193C62.4426 43.0254 63.224 40.6858 63.7102 38.0365C64.6826 32.153 63.5192 26.5792 61.4875 22.4677C59.4038 18.3217 56.4866 15.0015 52.7185 12.5071C48.9157 10.0298 44.4704 8.2063 38.3581 8.03427C38.3234 7.91385 38.2713 8.05148 38.1498 8.03427C34.92 7.93105 32.3153 8.37833 29.728 9.03205C28.5299 9.42772 27.2796 9.77179 26.2204 10.3051C25.0049 10.7008 24.0325 11.3545 22.9212 11.8362C22.5218 12.2146 21.914 12.4039 21.4973 12.7651C20.959 13.0232 20.5596 13.436 20.0213 13.6941C19.1531 14.451 18.2328 15.122 17.3819 15.8961C16.5484 16.653 15.8191 17.5132 15.0204 18.3045C14.8988 18.5798 14.6904 18.769 14.4821 18.9754C14.3431 19.2335 14.1695 19.4571 13.9438 19.6464C13.8569 19.956 13.5791 20.0764 13.4749 20.3861C13.2492 20.5581 13.1971 20.9022 12.9366 21.057C12.7109 21.6075 12.3115 22.0032 12.051 22.5193C11.7385 23.0182 11.4954 23.5687 11.1828 24.0504C10.6966 25.1686 10.1757 26.2524 9.77631 27.4566C9.35956 28.6264 9.01227 29.865 8.76917 31.2069C8.5087 32.4627 8.2656 34.097 8.30033 35.4216C8.12669 35.9033 8.2656 36.7979 8.30033 37.3656C8.30033 37.4688 8.23087 37.5032 8.23087 37.572C8.23087 38.2085 8.40452 38.9827 8.43925 39.3783C8.57816 40.8406 8.83863 42.1996 9.25537 43.3867C9.51584 44.7113 10.0715 45.7435 10.4709 46.9305C11.0786 47.9283 11.4954 49.1153 12.2247 50.0099C12.763 51.0592 13.527 51.885 14.2563 52.7452C15.0377 53.5709 15.8191 54.4139 16.7568 55.0848C18.4759 56.5642 20.4902 57.7513 22.6954 58.7662C26.8108 60.7446 32.9578 62.0348 38.4797 61.708C39.8862 61.5187 41.3101 61.3467 42.5951 61.037C43.7758 60.607 45.1476 60.3489 46.5715 60.1769C49.8186 59.9705 52.6317 60.2629 55.1322 60.9854C57.6674 61.6564 59.8553 62.6713 61.748 63.996C62.7551 64.5809 63.5886 65.3378 64.4395 66.0604C65.3077 66.8001 66.0023 67.7119 66.801 68.5376C66.9052 68.8473 67.1136 69.0709 67.2699 69.3461C67.4783 69.5698 67.3741 70.0859 67.8776 70.0171C68.1902 69.7074 67.8256 69.2601 67.8082 68.8817C67.4956 68.5548 67.4262 68.1247 67.1831 67.8495Z" fill="#FCB316"/>
<path d="M54.5737 49.5434C54.5042 49.5434 54.4868 49.595 54.4347 49.6122C54.3132 49.8703 54.3653 50.2831 54.4347 50.5412C54.7994 51.2809 54.9209 52.2443 55.7197 52.5539C56.1017 52.4335 56.067 51.883 56.0496 51.3497C55.876 50.696 55.6329 50.1111 55.2335 49.681C54.9557 49.5778 54.7647 49.4058 54.5737 49.5434ZM49.8505 51.4185C49.8505 51.3841 49.7984 51.3497 49.7811 51.4185C49.1212 51.3325 48.8955 51.6938 48.5656 51.9518C47.9925 53.4485 48.9129 54.9108 50.5277 54.8936C51.1702 54.7387 51.5696 54.3259 51.6738 53.6205C51.587 52.3647 51.0487 51.5562 49.8505 51.4185Z" fill="#FCB316"/>
<path d="M88.7883 46.6576C89.0488 47.7414 89.6044 48.5155 90.2296 49.238C90.8547 49.9606 91.584 50.5627 92.4696 51.01C93.3031 51.526 94.206 51.9561 95.2479 52.2486C95.7514 52.4206 96.2377 52.627 96.8628 52.6959C97.2969 52.9367 97.8178 53.0571 97.8525 53.6764C97.8352 54.4162 97.3316 54.6914 96.6891 54.829C96.0466 54.6914 95.2479 54.7086 94.7096 54.4678C93.3552 54.313 92.2612 53.8829 91.1151 53.4872C88.9272 52.6442 87.0866 51.4228 85.5585 49.9262C85.246 49.4101 84.8119 48.9972 84.4819 48.4983C84.152 47.9994 83.9263 47.3973 83.579 46.8984C80.9049 46.5544 79.0816 45.3501 77.4841 43.9567C76.0081 42.288 74.8273 40.2924 74.3411 37.6431C73.7681 35.0971 73.9417 31.9145 74.619 29.4545C76.0949 24.6892 79.1858 21.5238 85.0202 21.0938C86.6351 21.1454 88.0416 21.3346 89.3266 21.8163C90.6289 22.2808 91.8618 23.1409 92.8342 24.0355C92.9211 24.1043 92.9558 24.1215 93.0079 24.2075C93.2162 24.5 93.7198 24.9128 93.9976 25.2741C94.0497 25.3429 94.0324 25.4633 94.0845 25.5494C94.1887 25.7042 94.3449 25.773 94.4491 25.9106C94.5012 25.9966 94.4838 26.0999 94.5359 26.1687C94.6054 26.2719 94.6922 26.4267 94.7964 26.6159C94.8311 26.6848 94.9527 26.7364 94.9701 26.788C95.1263 27.0804 95.1958 27.4417 95.3347 27.7686C95.4736 28.1126 95.6646 28.4051 95.7862 28.7491C96.1335 29.7641 96.3592 30.9683 96.4981 32.207C96.8454 35.7852 96.1335 38.985 94.7964 41.359C94.1713 42.5976 93.3031 43.6126 92.2786 44.4728C91.3409 45.4534 90.0559 46.0383 88.7883 46.6576ZM84.4819 24.2591C83.7005 24.3107 83.2317 24.672 82.5892 24.8784C82.1725 25.2569 81.6515 25.5494 81.339 26.031C80.8181 26.3235 80.6791 26.9772 80.2624 27.3557C79.9151 28.2158 79.5852 29.1792 79.3594 30.2974C79.1511 31.3984 79.0122 32.637 78.9948 33.8585C78.9774 36.9206 79.6373 39.9656 80.8701 41.7719C81.5995 42.6492 82.485 43.3718 83.5616 43.9051C84.1867 43.9567 84.673 44.1631 85.3502 44.1803C85.7322 44.0427 86.3573 44.1803 86.6004 43.9051C87.1561 43.9395 87.2776 43.5782 87.7638 43.5438C88.0243 43.2858 88.3021 43.0793 88.6668 42.9245C88.9967 42.5632 89.3092 42.202 89.6565 41.8579C89.8302 41.5999 89.9344 41.2386 90.1948 41.0494C91.7576 38.0904 91.9313 32.6714 90.9068 29.2308C90.5248 27.975 89.9865 26.96 89.3787 26.1171C88.7189 25.4461 87.9375 24.8784 87.0519 24.4312C86.3399 24.2763 85.6627 24.0871 84.725 24.1731C84.673 24.1731 84.6209 24.1903 84.6382 24.2591C84.6035 24.2591 84.5514 24.2591 84.4819 24.2591ZM103.427 21.7647C104.833 21.8163 106.483 21.6442 107.733 21.8507C108.011 22.2808 107.907 22.7969 107.907 23.2785C108.011 29.7985 107.907 36.8002 107.907 43.4578C107.907 43.9911 107.924 44.5416 107.907 45.0577C107.889 45.505 108.011 45.9867 107.733 46.3995C107.108 46.5544 106.205 46.4855 105.406 46.4855C104.555 46.4855 103.722 46.606 103.166 46.3135C103.01 38.4345 103.01 29.9361 103.166 22.0399C103.201 21.9023 103.288 21.8163 103.427 21.7647ZM114.192 21.7647H118.412C118.794 22.2808 118.916 23.0549 119.037 23.8118C120.305 28.5943 121.555 33.394 122.718 38.2969C122.996 38.3313 122.909 38.0044 122.996 37.8496C123.118 37.7292 123.048 37.4367 123.17 37.3163C123.222 36.9206 123.465 36.7142 123.448 36.2497C123.76 35.6476 123.864 34.8218 124.16 34.2025C124.524 32.7575 125.01 31.4156 125.427 30.0222C125.827 28.5771 126.365 27.2697 126.677 25.7558C127.268 24.5344 127.407 22.8657 128.119 21.7647H129.907C130.55 22.9689 130.793 24.5688 131.348 25.859C131.713 27.3041 132.217 28.6115 132.599 30.0394C133.484 32.8091 134.405 35.5444 135.203 38.4001C135.568 37.8668 135.568 36.9722 135.829 36.3529C135.985 35.6476 136.124 34.925 136.367 34.3057C137.061 31.4844 137.721 28.6459 138.52 25.945C138.815 24.5344 139.11 23.0893 139.597 21.8507C140.638 21.6959 142.236 21.6959 143.278 21.8507C143.365 22.9001 142.878 24.0355 142.566 24.9644C142.392 26.0999 141.976 26.9772 141.75 28.0782C141.107 30.091 140.621 32.2242 139.961 34.2197C139.458 36.3529 138.78 38.3141 138.26 40.4472C137.912 41.4278 137.669 42.5116 137.357 43.561C137.009 44.5244 136.888 45.7114 136.367 46.5027H133.849C133.206 45.3845 132.981 43.8707 132.408 42.6837C131.157 38.7613 129.768 34.9939 128.553 31.0371C128.136 31.4672 128.136 32.3446 127.841 32.8951C127.65 33.566 127.459 34.2369 127.216 34.8562C126.868 36.2153 126.348 37.3679 126.052 38.7613C125.549 39.9828 125.184 41.3418 124.802 42.6837C124.281 43.8535 124.09 45.3501 123.448 46.4167C122.788 46.6232 121.746 46.4511 120.93 46.5027C120.305 45.7974 120.235 44.5244 119.853 43.561C119.558 42.5632 119.35 41.4622 118.968 40.5333C118.481 38.3657 117.752 36.4561 117.266 34.3057C116.623 32.3102 116.068 30.2286 115.477 28.1642C115.147 27.1837 114.904 26.1343 114.574 25.1365C114.418 24.0699 113.689 23.1065 113.949 21.9367C113.984 21.8507 114.088 21.7991 114.192 21.7647ZM149.633 21.7647C151.04 21.8163 152.672 21.6442 153.94 21.8507C154.252 22.7797 154.113 23.7774 154.113 24.7752V43.4406C154.113 44.4556 154.235 45.4361 153.94 46.3823C152.967 46.4855 151.543 46.5371 150.345 46.4683C149.998 46.4511 149.581 46.5544 149.355 46.2963C149.043 45.3673 149.182 44.3868 149.182 43.3546V24.8784C149.182 23.7602 149.078 22.6764 149.355 21.9367C149.425 21.8507 149.529 21.7991 149.633 21.7647Z" fill="#0269B3"/>
</g>
<defs>
<clipPath id="clip0_1012_87029">
<rect width="146" height="62" fill="white" transform="translate(8.14453 8)"/>
</clipPath>
</defs>
</svg>
