<svg width="230" height="221" viewBox="0 0 230 221" fill="none" xmlns="http://www.w3.org/2000/svg">
<path d="M189.246 33.5368L137.204 30.3721C133.852 30.1682 130.969 32.7207 130.765 36.0732L127.274 93.4777C127.07 96.8302 129.623 99.7132 132.975 99.9171L185.017 103.082C188.369 103.286 191.252 100.733 191.456 97.3808L194.947 39.9762C195.151 36.6237 192.598 33.7407 189.246 33.5368Z" fill="#407BFF" stroke="#2E353A" stroke-miterlimit="10"/>
<path d="M124.983 60.6479C124.983 60.6479 121.006 65.5579 109.32 69.0651C97.6344 72.5723 94.8216 74.4451 94.8216 74.4451C94.8216 74.4451 88.0388 76.7809 85.703 82.6238C83.3672 88.4668 84.7701 91.511 98.3288 90.5781C111.888 89.6452 139.945 78.6537 139.945 78.6537C139.945 78.6537 145.093 69.2966 143.922 61.3493C142.751 53.402 127.319 57.3722 124.983 60.6479Z" fill="white"/>
<mask id="mask0_1669_49684" style="mask-type:luminance" maskUnits="userSpaceOnUse" x="84" y="56" width="61" height="35">
<path d="M124.983 60.6479C124.983 60.6479 121.006 65.5579 109.32 69.0651C97.6344 72.5723 94.8216 74.4451 94.8216 74.4451C94.8216 74.4451 88.0388 76.7809 85.703 82.6238C83.3672 88.4668 84.7701 91.511 98.3288 90.5781C111.888 89.6452 139.945 78.6537 139.945 78.6537C139.945 78.6537 145.093 69.2966 143.922 61.3493C142.751 53.402 127.319 57.3722 124.983 60.6479Z" fill="white"/>
</mask>
<g mask="url(#mask0_1669_49684)">
<g style="mix-blend-mode:multiply" opacity="0.49">
<path d="M93.7058 85.3595C93.7058 85.3595 93.9794 88.0319 94.2249 90.7395C95.4524 90.7395 96.8061 90.6834 98.3283 90.5781C111.887 89.6382 139.944 78.6537 139.944 78.6537C141.939 74.8448 143.284 70.7291 143.922 66.4768L142.343 61.9736C142.343 61.9736 134.389 70.8608 126.912 76.0023C119.434 81.1438 93.7058 85.3595 93.7058 85.3595Z" fill="#407BFF"/>
</g>
</g>
<path d="M124.983 60.6479C124.983 60.6479 121.006 65.5579 109.32 69.0651C97.6344 72.5723 94.8216 74.4451 94.8216 74.4451C94.8216 74.4451 88.0388 76.7809 85.703 82.6238C83.3672 88.4668 84.7701 91.511 98.3288 90.5781C111.888 89.6452 139.945 78.6537 139.945 78.6537C139.945 78.6537 145.093 69.2966 143.922 61.3493C142.751 53.402 127.319 57.3722 124.983 60.6479Z" stroke="#2E353A" stroke-miterlimit="10"/>
<path d="M95.3059 86.8186C95.3059 86.8186 123.23 82.4837 137.055 74.6206" stroke="#2E353A" stroke-width="0.5" stroke-miterlimit="10"/>
<path d="M118.803 85.9836C119.631 83.276 120.515 78.5133 118.67 73.7435C117.701 71.1608 115.846 69.0059 113.437 67.6621C112.182 68.1461 110.814 68.6161 109.32 69.065L108.232 69.3947C110.687 70.9027 114.608 74.1504 114.931 79.5865C115.132 82.1124 115.087 84.6518 114.798 87.169C116.138 86.7832 117.477 86.3904 118.803 85.9836Z" fill="#2E353A" stroke="#2E353A" stroke-miterlimit="10"/>
<path d="M143.977 49.1725C142.831 48.0442 141.472 47.1548 139.979 46.5561C129.942 42.7403 124.548 54.2088 122.682 62.0508C122.682 62.0508 125.018 63.9237 130.861 62.9837C136.704 62.0438 145.121 58.0737 146.061 54.798C146.608 52.7568 145.528 50.7437 143.977 49.1725Z" fill="#2E353A" stroke="#2E353A" stroke-miterlimit="10"/>
<path d="M96.694 77.0122C96.694 77.0122 96.694 82.3922 92.9483 83.7951C89.2026 85.1979 85.7025 82.6237 85.7025 82.6237C85.7025 82.6237 85.0011 72.3407 85.934 70.4678C86.8669 68.595 95.0526 72.5721 96.694 77.0122Z" fill="white" stroke="#2E353A" stroke-miterlimit="10"/>
<path d="M150.164 47.173C150.164 47.173 143.851 48.0427 142.308 49.9787C140.765 51.9147 132.271 97.9849 131.836 99.2966C131.401 100.608 133.14 104.754 138.598 110.646C144.055 116.538 150.817 118.284 157.361 118.719C163.905 119.154 179.4 115.914 183.111 112.406C186.821 108.899 186.386 99.7455 186.386 94.7302C186.386 89.715 188.35 55.2324 187.039 52.1812C185.727 49.13 177.219 46.5066 175.914 46.5066C174.609 46.5066 151.693 46.9555 150.164 47.173Z" fill="white"/>
<mask id="mask1_1669_49684" style="mask-type:luminance" maskUnits="userSpaceOnUse" x="131" y="46" width="57" height="73">
<path d="M150.164 47.173C150.164 47.173 143.851 48.0427 142.308 49.9787C140.765 51.9147 132.271 97.9849 131.836 99.2966C131.401 100.608 133.14 104.754 138.598 110.646C144.055 116.538 150.817 118.284 157.361 118.719C163.905 119.154 179.4 115.914 183.111 112.406C186.821 108.899 186.386 99.7455 186.386 94.7302C186.386 89.715 188.35 55.2324 187.039 52.1812C185.727 49.13 177.219 46.5066 175.914 46.5066C174.609 46.5066 151.693 46.9555 150.164 47.173Z" fill="white"/>
</mask>
<g mask="url(#mask1_1669_49684)">
<g style="mix-blend-mode:multiply" opacity="0.49">
<path d="M186.384 94.7441C186.384 89.7219 188.348 55.2464 187.037 52.1881C185.725 49.1298 177.217 46.5205 175.912 46.5205C174.607 46.5205 151.684 46.9554 150.162 47.1728C149.012 47.3466 147.872 47.5807 146.746 47.8743C149.552 52.7843 155.697 59.967 167.593 60.5773C172.238 60.8702 176.898 60.3721 181.376 59.1042L178.816 87.6947L158.979 85.8289L173.667 93.7762L174.607 105.932L185.199 108.843C186.623 104.529 186.384 98.4898 186.384 94.7441Z" fill="#407BFF"/>
</g>
</g>
<path d="M150.164 47.173C150.164 47.173 143.851 48.0427 142.308 49.9787C140.765 51.9147 132.271 97.9849 131.836 99.2966C131.401 100.608 133.14 104.754 138.598 110.646C144.055 116.538 150.817 118.284 157.361 118.719C163.905 119.154 179.4 115.914 183.111 112.406C186.821 108.899 186.386 99.7455 186.386 94.7302C186.386 89.715 188.35 55.2324 187.039 52.1812C185.727 49.13 177.219 46.5066 175.914 46.5066C174.609 46.5066 151.693 46.9555 150.164 47.173Z" stroke="#2E353A" stroke-miterlimit="10"/>
<path d="M160.287 95.6C150.306 95.6 138.002 80.1684 137.483 79.5371L139.132 78.2324C139.258 78.3867 151.323 93.4956 160.287 93.4956C162.889 93.4956 164.629 92.8714 165.457 91.6368C166.719 89.757 165.59 86.8601 165.576 86.832L167.526 86.0324C167.589 86.1937 169.104 89.9815 167.203 92.8153C165.962 94.66 163.619 95.6 160.287 95.6Z" fill="#2E353A" stroke="#2E353A" stroke-miterlimit="10"/>
<path d="M128.414 100.644C129.024 100.104 129.816 99.4094 130.518 98.8693C129.957 98.7991 126.941 98.3502 126.099 96.2389C125.257 94.1276 126.576 91.0272 129.809 86.994C139.679 74.7049 155.405 72.1166 155.566 72.0955L155.25 69.9141C154.549 70.0193 138.591 72.6356 128.196 85.5841C124.359 90.3609 123.005 94.2328 124.163 97.0947C124.566 97.9632 125.156 98.7319 125.891 99.3455C126.625 99.9592 127.487 100.403 128.414 100.644Z" fill="#2E353A" stroke="#2E353A" stroke-miterlimit="10"/>
<path d="M157.924 68.6665L154.653 68.4905L154.383 73.5055L157.654 73.6815L157.924 68.6665Z" fill="white" stroke="#2E353A" stroke-miterlimit="10"/>
<path d="M164.133 84.6375L163.935 87.9072L168.948 88.2103L169.146 84.9406L164.133 84.6375Z" fill="white" stroke="#2E353A" stroke-miterlimit="10"/>
<path d="M157.368 63.769L156.057 82.4342C156.001 83.2708 156.276 84.096 156.823 84.7313C157.371 85.3666 158.146 85.761 158.982 85.8291L177.366 87.2811C177.797 87.3145 178.23 87.26 178.639 87.1207C179.048 86.9814 179.425 86.7604 179.746 86.471C180.066 86.1816 180.325 85.8299 180.506 85.4374C180.686 85.0449 180.785 84.6197 180.796 84.1878L181.287 64.7159C181.308 63.879 180.998 63.0677 180.424 62.4583C179.85 61.8489 179.059 61.4906 178.222 61.4613L160.686 60.816C159.857 60.7773 159.046 61.0646 158.426 61.6165C157.806 62.1684 157.426 62.9409 157.368 63.769Z" fill="white" stroke="#2E353A" stroke-miterlimit="10"/>
<path d="M165.764 60.9985L165.217 72.9229L171.109 73.3578L171.867 61.223L165.764 60.9985Z" fill="#407BFF" stroke="#2E353A" stroke-miterlimit="10"/>
<path d="M179.618 78.8148C179.618 79.549 179.4 80.2667 178.992 80.8771C178.584 81.4874 178.004 81.963 177.326 82.2436C176.648 82.5243 175.901 82.5973 175.181 82.4536C174.461 82.3099 173.8 81.9558 173.281 81.4361C172.763 80.9165 172.41 80.2547 172.267 79.5344C172.125 78.8142 172.2 78.0679 172.481 77.39C172.763 76.7121 173.24 76.1331 173.851 75.7262C174.462 75.3193 175.18 75.1029 175.915 75.1043C176.402 75.1043 176.884 75.2003 177.334 75.3868C177.783 75.5734 178.192 75.8468 178.536 76.1915C178.88 76.5361 179.153 76.9452 179.338 77.3954C179.524 77.8455 179.619 78.3279 179.618 78.8148Z" fill="#407BFF" stroke="#2E353A" stroke-miterlimit="10"/>
<path d="M84.6497 93.2646C84.6497 93.2646 89.9105 94.1975 93.5369 91.511C97.1633 88.8245 95.1712 84.0267 91.8955 81.3402C88.6198 78.6537 81.9632 77.833 79.2697 79.1167C76.5762 80.4003 77.9861 85.4296 78.8068 88.1231C79.6274 90.8166 81.0233 92.7946 84.6497 93.2646Z" fill="white" stroke="#2E353A" stroke-miterlimit="10"/>
<path d="M58.0797 6.76355C58.0797 6.76355 61.3835 17.1588 49.6976 23.2402C38.0117 29.3217 32.3932 28.8517 18.8344 37.7319C5.2757 46.6121 2 66.2592 2 66.2592C2 66.2592 5.26869 57.842 20.7003 56.9091C36.1318 55.9762 51.5634 55.3589 57.6448 55.0363C66.532 54.5663 71.2035 49.4248 71.2035 49.4248L58.0797 6.76355Z" fill="#407BFF" stroke="#2E353A" stroke-miterlimit="10"/>
<path d="M111.144 179.464L58.08 6.76364C58.0119 6.54351 57.988 6.31208 58.0097 6.08268C58.0315 5.85328 58.0984 5.63044 58.2066 5.42701C58.3149 5.22359 58.4623 5.04359 58.6404 4.89739C58.8185 4.75119 59.0238 4.64168 59.2444 4.57516C59.6881 4.44119 60.1667 4.48757 60.5764 4.70424C60.9861 4.92092 61.2938 5.2904 61.4329 5.73253L114.517 178.447L111.144 179.464Z" fill="#2E353A" stroke="#2E353A" stroke-miterlimit="10"/>
<path d="M78.8081 93.2643C78.8081 93.2643 78.2189 95.3686 80.7932 95.9508C83.3674 96.533 87.8075 95.2493 87.576 93.0328C87.3446 90.8163 85.584 90.3393 83.7181 90.5778C81.8523 90.8163 78.8081 92.2121 78.8081 93.2643Z" fill="white" stroke="#2E353A" stroke-miterlimit="10"/>
<path d="M81.0237 86.0186C81.0237 86.0186 74.5074 87.0427 74.2338 88.4456C73.9603 89.8485 74.4723 93.1172 76.2119 93.6082C77.9514 94.0992 83.7102 93.524 84.7483 91.6652C85.7864 89.8064 84.3555 86.2571 83.0158 85.8713C82.6949 85.7404 82.3481 85.6856 82.0025 85.7112C81.6568 85.7367 81.3218 85.842 81.0237 86.0186Z" fill="white" stroke="#2E353A" stroke-miterlimit="10"/>
<path d="M79.1933 81.5293C79.1933 81.5293 72.6699 82.5534 72.3964 83.9633C72.1228 85.3732 72.6349 88.6279 74.3814 89.1189C76.128 89.6099 81.8728 89.0417 82.9179 87.1829C83.963 85.3241 82.5181 81.7748 81.1854 81.389C80.8649 81.2576 80.5184 81.2019 80.1729 81.2263C79.8274 81.2506 79.4922 81.3543 79.1933 81.5293Z" fill="white" stroke="#2E353A" stroke-miterlimit="10"/>
<path d="M77.8256 74.782C77.8256 74.782 70.692 74.3751 70.1098 75.8061C69.5277 77.237 69.2892 80.7933 71.0217 81.7122C72.7543 82.631 78.969 83.3465 80.4981 81.614C82.0272 79.8814 81.3188 75.8061 79.9931 75.0906C79.681 74.8735 79.3224 74.7324 78.946 74.6788C78.5696 74.6253 78.1859 74.6606 77.8256 74.782Z" fill="white" stroke="#2E353A" stroke-miterlimit="10"/>
<path d="M87.7161 77.6997C87.7161 77.6997 89.4697 74.1153 88.2142 71.4429C86.9586 68.7704 84.209 69.3386 83.0446 70.1873C82.2932 70.7587 81.6835 71.4956 81.2629 72.3407C81.2629 72.3407 84.209 72.2776 85.4715 73.5261C86.7341 74.7747 87.7161 77.6997 87.7161 77.6997Z" fill="#2E353A" stroke="#2E353A" stroke-miterlimit="10"/>
<path d="M87.1616 73.1758C87.0756 72.8265 86.9014 72.5052 86.6558 72.2424C86.4102 71.9796 86.1014 71.7841 85.7588 71.6747C84.3559 71.2188 82.0412 70.7418 81.2485 72.3761C80.0771 74.7119 80.0771 80.7933 83.5843 81.9577C87.0915 83.1221 88.0244 80.3234 87.7929 77.2862C87.6918 75.9015 87.4808 74.527 87.1616 73.1758Z" fill="white" stroke="#2E353A" stroke-miterlimit="10"/>
<path d="M186.323 101.682C182.115 98.6935 174.294 95.8317 167.069 100.398C159.844 104.964 159.732 115.163 159.942 118.755C167.315 118.425 179.828 115.507 183.09 112.442C185.419 110.246 186.12 105.876 186.323 101.682Z" fill="#2E353A" stroke="#2E353A" stroke-miterlimit="10"/>
<path d="M166.095 149.73C165.51 150.369 165.086 151.138 164.858 151.974C164.63 152.81 164.604 153.688 164.783 154.535C165.435 157.341 164.783 182.024 164.783 182.024C164.783 182.024 165 187.916 175.255 189.445C185.51 190.975 189.004 188.134 189.004 188.134C189.004 188.134 188.786 157.151 188.569 153.658C188.463 151.619 187.782 149.652 186.605 147.984L166.095 149.73Z" fill="white"/>
<mask id="mask2_1669_49684" style="mask-type:luminance" maskUnits="userSpaceOnUse" x="164" y="147" width="26" height="43">
<path d="M166.093 149.73C165.508 150.369 165.084 151.138 164.856 151.974C164.628 152.81 164.602 153.688 164.781 154.535C165.433 157.341 164.781 182.024 164.781 182.024C164.781 182.024 164.999 187.916 175.254 189.445C185.508 190.975 189.002 188.134 189.002 188.134C189.002 188.134 188.784 157.151 188.567 153.658C188.462 151.619 187.781 149.652 186.603 147.984L166.093 149.73Z" fill="white"/>
</mask>
<g mask="url(#mask2_1669_49684)">
<g style="mix-blend-mode:multiply" opacity="0.49">
<path d="M186.602 148.019L166.092 149.765C165.508 150.404 165.084 151.174 164.855 152.009C164.627 152.845 164.602 153.723 164.781 154.57C165.019 155.587 165.082 159.424 165.068 163.92L184.771 189.635C187.802 189.137 188.98 188.169 188.98 188.169C188.98 188.169 188.763 157.187 188.545 153.693C188.446 151.656 187.773 149.689 186.602 148.019Z" fill="#407BFF"/>
</g>
</g>
<path d="M166.095 149.73C165.51 150.369 165.086 151.138 164.858 151.974C164.63 152.81 164.604 153.688 164.783 154.535C165.435 157.341 164.783 182.024 164.783 182.024C164.783 182.024 165 187.916 175.255 189.445C185.51 190.975 189.004 188.134 189.004 188.134C189.004 188.134 188.786 157.151 188.569 153.658C188.463 151.619 187.782 149.652 186.605 147.984L166.095 149.73Z" stroke="#2E353A" stroke-miterlimit="10"/>
<path d="M186.17 104.782C186.17 104.782 183.771 101.724 174.842 102.159C165.912 102.594 161.97 113.291 162.216 115.486C162.461 117.682 163.738 146.911 164.615 149.309C165.492 151.708 175.522 153.89 182.943 152.585C190.364 151.281 191.017 144.729 190.147 140.142C189.277 135.554 187.966 108.724 187.966 107.876C187.966 107.027 187.257 106.087 186.17 104.782Z" fill="white"/>
<mask id="mask3_1669_49684" style="mask-type:luminance" maskUnits="userSpaceOnUse" x="162" y="102" width="29" height="51">
<path d="M186.168 104.782C186.168 104.782 183.769 101.724 174.84 102.159C165.911 102.594 161.969 113.291 162.214 115.486C162.46 117.682 163.736 146.911 164.613 149.309C165.49 151.708 175.52 153.89 182.942 152.585C190.363 151.281 191.015 144.729 190.145 140.142C189.275 135.554 187.964 108.724 187.964 107.876C187.964 107.027 187.255 106.087 186.168 104.782Z" fill="white"/>
</mask>
<g mask="url(#mask3_1669_49684)">
<g style="mix-blend-mode:multiply" opacity="0.49">
<path d="M190.098 140.128C189.221 135.547 187.916 108.71 187.916 107.862C187.916 107.013 187.257 106.115 186.17 104.81C185.707 104.323 185.154 103.93 184.542 103.653L183.49 104.088C183.49 104.088 183.96 108.767 183.96 114.848C183.96 120.929 182.557 141.502 182.557 141.502L162.917 119.52L162.714 125.194C163.233 134.656 163.99 147.752 164.565 149.323C165.435 151.722 175.473 153.904 182.894 152.599C190.315 151.295 190.974 144.715 190.098 140.128Z" fill="#407BFF"/>
</g>
</g>
<path d="M186.17 104.782C186.17 104.782 183.771 101.724 174.842 102.159C165.912 102.594 161.97 113.291 162.216 115.486C162.461 117.682 163.738 146.911 164.615 149.309C165.492 151.708 175.522 153.89 182.943 152.585C190.364 151.281 191.017 144.729 190.147 140.142C189.277 135.554 187.966 108.724 187.966 107.876C187.966 107.027 187.257 106.087 186.17 104.782Z" stroke="#2E353A" stroke-miterlimit="10"/>
<path d="M165.217 150.165C165.217 150.165 171.53 155.839 178.965 155.404C186.4 154.97 188.35 150.165 188.35 150.165C188.35 150.165 189.003 147.983 180.494 146.019C171.986 144.055 165.217 150.165 165.217 150.165Z" fill="#2E353A" stroke="#2E353A" stroke-miterlimit="10"/>
<path d="M162.054 55.2188C173.533 55.2188 182.838 45.1695 182.838 32.7729C182.838 20.3764 173.533 10.327 162.054 10.327C150.576 10.327 141.271 20.3764 141.271 32.7729C141.271 45.1695 150.576 55.2188 162.054 55.2188Z" fill="#2E353A" stroke="#2E353A" stroke-miterlimit="10"/>
<path d="M162.054 52.7218C175.023 52.7218 185.538 42.6724 185.538 30.2759C185.538 17.8793 175.023 7.82996 162.054 7.82996C149.084 7.82996 138.57 17.8793 138.57 30.2759C138.57 42.6724 149.084 52.7218 162.054 52.7218Z" fill="white"/>
<mask id="mask4_1669_49684" style="mask-type:luminance" maskUnits="userSpaceOnUse" x="138" y="7" width="48" height="46">
<path d="M162.055 52.7214C175.025 52.7214 185.539 42.672 185.539 30.2755C185.539 17.879 175.025 7.82959 162.055 7.82959C149.085 7.82959 138.571 17.879 138.571 30.2755C138.571 42.672 149.085 52.7214 162.055 52.7214Z" fill="white"/>
</mask>
<g mask="url(#mask4_1669_49684)">
<g style="mix-blend-mode:multiply" opacity="0.49">
<path d="M171.04 9.54114C171.84 19.8382 169.273 37.1496 146.146 46.7873C150.549 50.6369 156.206 52.747 162.055 52.7215C175.024 52.7215 185.539 42.6769 185.539 30.2755C185.539 20.9254 179.549 12.908 171.04 9.54114Z" fill="#407BFF"/>
</g>
</g>
<path d="M162.054 52.7218C175.023 52.7218 185.538 42.6724 185.538 30.2759C185.538 17.8793 175.023 7.82996 162.054 7.82996C149.084 7.82996 138.57 17.8793 138.57 30.2759C138.57 42.6724 149.084 52.7218 162.054 52.7218Z" stroke="#2E353A" stroke-miterlimit="10"/>
<path d="M138.254 29.0273C139.688 29.0273 140.85 27.8653 140.85 26.432C140.85 24.9986 139.688 23.8367 138.254 23.8367C136.821 23.8367 135.659 24.9986 135.659 26.432C135.659 27.8653 136.821 29.0273 138.254 29.0273Z" fill="white" stroke="#2E353A" stroke-miterlimit="10"/>
<path d="M138.254 27.9891C139.114 27.9891 139.811 27.292 139.811 26.4319C139.811 25.5719 139.114 24.8748 138.254 24.8748C137.394 24.8748 136.697 25.5719 136.697 26.4319C136.697 27.292 137.394 27.9891 138.254 27.9891Z" fill="white" stroke="#2E353A" stroke-miterlimit="10"/>
<path d="M161.738 49.1866C172.356 49.1866 180.964 41.9761 180.964 33.0816C180.964 24.1871 172.356 16.9767 161.738 16.9767C151.119 16.9767 142.511 24.1871 142.511 33.0816C142.511 41.9761 151.119 49.1866 161.738 49.1866Z" fill="#2E353A" stroke="#2E353A" stroke-miterlimit="10"/>
<path d="M146.244 25.3451V32.8294L147.444 27.1407L150.733 34.0288V26.2429L163.619 44.8029L154.64 24.1456H158.849L155.854 21.4521L161.241 19.958L154.36 19.3618C154.36 19.3618 148.938 20.8559 146.244 25.3451Z" fill="#407BFF"/>
<path d="M201.089 60.9426L201.657 61.2653C204.645 62.9487 218.492 70.8679 221.817 74.4663C225.506 78.5065 216.907 84.4827 209.52 86.2363C202.134 87.9899 187.916 75.5254 185.805 73.0634C183.694 70.6014 181.765 57.4284 186.682 54.9734C191.599 52.5184 201.089 60.9426 201.089 60.9426Z" fill="white"/>
<mask id="mask5_1669_49684" style="mask-type:luminance" maskUnits="userSpaceOnUse" x="183" y="54" width="40" height="33">
<path d="M201.087 60.9426L201.655 61.2653C204.644 62.9487 218.49 70.8679 221.815 74.4663C225.504 78.5065 216.905 84.4827 209.518 86.2363C202.132 87.9899 187.914 75.5254 185.803 73.0634C183.692 70.6014 181.763 57.4284 186.68 54.9734C191.597 52.5184 201.087 60.9426 201.087 60.9426Z" fill="white"/>
</mask>
<g mask="url(#mask5_1669_49684)">
<g style="mix-blend-mode:multiply" opacity="0.49">
<path d="M221.836 74.4659C218.547 70.8676 204.665 62.9484 201.677 61.2649L201.109 60.9423C201.109 60.9423 191.619 52.5251 186.702 54.9731C181.784 57.4211 183.72 70.608 185.825 73.0631C188.043 75.3459 190.45 77.4367 193.021 79.3128L206.405 67.5849L222.341 78.1064C222.647 77.5226 222.762 76.8579 222.672 76.2053C222.581 75.5527 222.289 74.9446 221.836 74.4659Z" fill="#407BFF"/>
</g>
</g>
<path d="M201.089 60.9426L201.657 61.2653C204.645 62.9487 218.492 70.8679 221.817 74.4663C225.506 78.5065 216.907 84.4827 209.52 86.2363C202.134 87.9899 187.916 75.5254 185.805 73.0634C183.694 70.6014 181.765 57.4284 186.682 54.9734C191.599 52.5184 201.089 60.9426 201.089 60.9426Z" stroke="#2E353A" stroke-miterlimit="10"/>
<path d="M181.448 49.1725C182.596 48.0456 183.955 47.1565 185.447 46.5561C195.491 42.7403 200.878 54.2088 202.751 62.0508C202.751 62.0508 200.408 63.9237 194.565 62.9837C188.722 62.0438 180.305 58.0737 179.365 54.798C178.783 52.7568 179.863 50.7437 181.448 49.1725Z" fill="#2E353A" stroke="#2E353A" stroke-miterlimit="10"/>
<path d="M200.913 82.7221C200.913 82.7221 210.572 71.3098 217.425 71.1344C224.278 70.959 227.449 76.2268 226.747 80.4424C226.046 84.6581 220.778 89.3997 220.778 89.3997C220.778 89.3997 224.468 76.7739 219.017 76.7739C213.567 76.7739 200.913 82.7221 200.913 82.7221Z" fill="#2E353A" stroke="#2E353A" stroke-miterlimit="10"/>
<path d="M197.399 85.3593C197.399 85.3593 208.993 75.8759 217.249 74.6484C225.505 73.4209 228.472 83.4303 220.756 89.3785C213.041 95.3267 207.927 97.7957 202.484 97.0943C197.041 96.3928 192.657 90.9848 197.399 85.3593Z" fill="white"/>
<mask id="mask6_1669_49684" style="mask-type:luminance" maskUnits="userSpaceOnUse" x="195" y="74" width="31" height="24">
<path d="M197.4 85.3593C197.4 85.3593 208.995 75.8759 217.251 74.6484C225.507 73.4209 228.474 83.4303 220.758 89.3785C213.042 95.3267 207.929 97.7957 202.486 97.0943C197.043 96.3928 192.659 90.9848 197.4 85.3593Z" fill="white"/>
</mask>
<g mask="url(#mask6_1669_49684)">
<g style="mix-blend-mode:multiply" opacity="0.49">
<path d="M221.93 75.3357C222.049 77.3769 221.439 82.6026 212.952 86.2921C202.199 90.9707 200.038 90.9847 200.038 90.9847C200.357 92.7216 200.06 94.5154 199.197 96.0561C200.219 96.6151 201.337 96.9791 202.493 97.1293C207.936 97.8307 213.015 95.3757 220.766 89.4135C226.749 84.763 226.3 77.6925 221.93 75.3357Z" fill="#407BFF"/>
</g>
</g>
<path d="M197.399 85.3593C197.399 85.3593 208.993 75.8759 217.249 74.6484C225.505 73.4209 228.472 83.4303 220.756 89.3785C213.041 95.3267 207.927 97.7957 202.484 97.0943C197.041 96.3928 192.657 90.9848 197.399 85.3593Z" stroke="#2E353A" stroke-miterlimit="10"/>
<path d="M205.64 95.2215C205.64 95.2215 222.475 88.2072 225.428 78.1416" stroke="#2E353A" stroke-width="0.5" stroke-miterlimit="10"/>
<path d="M193.184 89.049C193.184 89.049 195.288 86.2433 198.277 85.8855C201.265 85.5278 204.428 89.7504 205.48 93.2646C206.532 96.7788 205.13 98.5324 203.544 99.0585C201.959 99.5846 193.184 89.049 193.184 89.049Z" fill="#2E353A" stroke="#2E353A" stroke-miterlimit="10"/>
<path d="M203.544 99.0583C203.544 99.0583 204.603 95.7265 200.037 90.9848C195.471 86.2431 193.886 88.8805 189.845 91.1602C185.805 93.4399 184.402 97.4731 186.156 100.279C187.909 103.085 188.618 104.845 193.872 105.722C199.125 106.599 202.127 101.156 202.127 101.156C202.834 100.647 203.336 99.9034 203.544 99.0583Z" fill="white"/>
<mask id="mask7_1669_49684" style="mask-type:luminance" maskUnits="userSpaceOnUse" x="185" y="88" width="19" height="18">
<path d="M203.544 99.0583C203.544 99.0583 204.603 95.7265 200.037 90.9848C195.471 86.2431 193.886 88.8805 189.845 91.1602C185.805 93.4399 184.402 97.4731 186.156 100.279C187.909 103.085 188.618 104.845 193.872 105.722C199.125 106.599 202.127 101.156 202.127 101.156C202.834 100.647 203.336 99.9034 203.544 99.0583Z" fill="white"/>
</mask>
<g mask="url(#mask7_1669_49684)">
<g style="mix-blend-mode:multiply" opacity="0.49">
<path d="M196.116 98.448C192.964 99.4917 189.728 100.264 186.444 100.756C188.008 103.295 188.913 104.908 193.886 105.736C199.154 106.613 202.142 101.17 202.142 101.17C202.844 100.657 203.341 99.9108 203.545 99.0652C203.545 99.0652 204.604 95.7334 200.037 90.9917C200.037 90.9847 201.265 96.5821 196.116 98.448Z" fill="#407BFF"/>
</g>
</g>
<path d="M203.544 99.0583C203.544 99.0583 204.603 95.7265 200.037 90.9848C195.471 86.2431 193.886 88.8805 189.845 91.1602C185.805 93.4399 184.402 97.4731 186.156 100.279C187.909 103.085 188.618 104.845 193.872 105.722C199.125 106.599 202.127 101.156 202.127 101.156C202.834 100.647 203.336 99.9034 203.544 99.0583Z" stroke="#2E353A" stroke-miterlimit="10"/>
<path d="M202.141 101.17C202.141 101.17 198.101 103.632 195.639 103.807L202.141 101.17Z" fill="white"/>
<path d="M202.141 101.17C202.141 101.17 198.101 103.632 195.639 103.807" stroke="#2E353A" stroke-miterlimit="10"/>
<path d="M85.2324 215.896C85.2324 215.896 78.688 211.225 84.7695 205.143C90.8509 199.062 95.0525 200.465 97.3953 194.853C99.7381 189.242 102.067 178.959 119.371 172.877C136.676 166.796 153.973 171.944 162.39 178.019C170.807 184.093 186.239 188.309 194.656 187.376C203.073 186.443 213.364 194.853 214.766 202.337C216.169 209.822 218.975 210.755 220.378 212.157C221.781 213.56 223.184 217.299 223.184 217.299H95.9924C95.9924 217.299 88.5081 218.239 85.2324 215.896Z" fill="#2E353A" stroke="#2E353A" stroke-miterlimit="10"/>
<path d="M205.241 194.938C205.241 194.938 209.239 200.928 206.742 205.929C204.245 210.93 199.728 210.923 199.728 210.923" stroke="white" stroke-miterlimit="10"/>
<path d="M197.749 207.928C197.749 207.928 197.749 209.92 190.735 212.424" stroke="white" stroke-miterlimit="10"/>
<path d="M132.053 214.409C129.844 215.034 128.301 215.419 128.301 215.419" stroke="white" stroke-miterlimit="10"/>
<path d="M154.844 192.125C152.529 194.06 150.032 196.684 149.281 199.433C147.787 204.926 150.284 205.929 146.286 208.924C144.063 210.593 138.753 212.431 134.481 213.701" stroke="white" stroke-miterlimit="10"/>
<path d="M159.276 188.94C159.276 188.94 158.322 189.502 156.997 190.449" stroke="white" stroke-miterlimit="10"/>
<path d="M137.791 206.427C137.791 206.427 130.777 210.923 124.801 212.922C118.824 214.921 105.315 211.421 105.315 211.421" stroke="white" stroke-miterlimit="10"/>
<path d="M103.393 207.991C100.964 206.856 98.8712 205.111 97.3181 202.927" stroke="white" stroke-miterlimit="10"/>
<path d="M110.308 209.92C108.966 209.8 107.639 209.539 106.352 209.142" stroke="white" stroke-miterlimit="10"/>
<path d="M146.026 98.5251C140.365 93.7624 135.469 94.3165 132.656 95.3336C132.207 97.6343 131.906 99.1073 131.836 99.3248C131.394 100.636 133.14 104.782 138.598 110.674C142.085 114.425 146.668 116.978 151.693 117.969C153.047 112.701 153.321 104.67 146.026 98.5251Z" fill="#2E353A" stroke="#2E353A" stroke-miterlimit="10"/>
<path d="M125.741 171.334C125.741 171.334 115.465 176.777 115.22 182.683C114.974 188.589 121.112 188.575 127.845 186.829C134.579 185.082 143.333 177.879 144.862 177.226C146.391 176.574 151.624 173.516 150.537 169.153C149.45 164.79 143.522 160.644 143.522 160.644L125.741 171.334Z" fill="white" stroke="#2E353A" stroke-miterlimit="10"/>
<path d="M150.67 169.595C144.792 173.852 131.731 182.985 125.944 184.648C124.156 185.221 122.257 185.368 120.402 185.074C118.546 184.78 116.786 184.055 115.261 182.957C115.261 188.569 121.252 188.569 127.887 186.829C134.649 185.082 143.375 177.879 144.904 177.226C146.433 176.574 151.315 173.719 150.67 169.595Z" fill="#407BFF" stroke="#2E353A" stroke-miterlimit="10"/>
<path d="M113.943 147.114C113.943 147.114 120.922 169.56 123.538 171.769C126.155 173.979 137.287 172.204 137.287 172.204C137.287 172.204 139.686 176.574 141.432 178.517C143.179 180.46 148.446 178.952 148.636 173.495C148.825 168.038 145.578 160.406 145.578 160.406L138.163 139.889C138.163 139.889 129.431 138.142 121.329 139.889C113.227 141.636 113.943 147.114 113.943 147.114Z" fill="white"/>
<mask id="mask8_1669_49684" style="mask-type:luminance" maskUnits="userSpaceOnUse" x="113" y="139" width="36" height="41">
<path d="M113.943 147.114C113.943 147.114 120.922 169.56 123.538 171.769C126.155 173.979 137.287 172.204 137.287 172.204C137.287 172.204 139.686 176.574 141.432 178.517C143.179 180.46 148.446 178.952 148.636 173.495C148.825 168.038 145.578 160.406 145.578 160.406L138.163 139.889C138.163 139.889 129.431 138.142 121.329 139.889C113.227 141.636 113.943 147.114 113.943 147.114Z" fill="white"/>
</mask>
<g mask="url(#mask8_1669_49684)">
<g style="mix-blend-mode:multiply" opacity="0.49">
<path d="M148.634 173.516C148.851 168.059 145.576 160.427 145.576 160.427L138.161 139.91C133.531 139.092 128.807 138.936 124.133 139.447C122.368 140.029 120.556 140.459 118.718 140.731C117.302 141.275 116.062 142.197 115.133 143.396C116.992 143.993 119.11 144.624 121.32 145.213C128.334 147.086 130.67 144.28 132.073 149.892C133.476 155.503 135.061 166.937 137.306 172.204C137.306 172.204 139.705 176.574 141.451 178.517C143.198 180.46 148.416 178.973 148.634 173.516Z" fill="#407BFF"/>
</g>
</g>
<path d="M113.943 147.114C113.943 147.114 120.922 169.56 123.538 171.769C126.155 173.979 137.287 172.204 137.287 172.204C137.287 172.204 139.686 176.574 141.432 178.517C143.179 180.46 148.446 178.952 148.636 173.495C148.825 168.038 145.578 160.406 145.578 160.406L138.163 139.889C138.163 139.889 129.431 138.142 121.329 139.889C113.227 141.636 113.943 147.114 113.943 147.114Z" stroke="#2E353A" stroke-miterlimit="10"/>
<path d="M145.794 171.229C146.018 172.448 146.086 173.69 145.998 174.926" stroke="#2E353A" stroke-width="0.5" stroke-miterlimit="10"/>
<path d="M135.701 145.108C135.701 145.108 142.975 159.136 145.324 168.956" stroke="#2E353A" stroke-width="0.5" stroke-miterlimit="10"/>
<path d="M113.066 136.641C113.066 136.641 109.797 140.787 111.761 145.802C113.726 150.817 121.582 152.115 128.343 149.73C135.105 147.345 138.816 141.439 137.946 138.388C137.076 135.337 113.066 136.641 113.066 136.641Z" fill="#2E353A" stroke="#2E353A" stroke-miterlimit="10"/>
<path d="M151.034 116.349C151.034 116.349 142.309 136.424 136.634 140.569C130.959 144.715 118.305 144.932 113.725 139.91C109.145 134.888 114.595 123.111 120.269 113.957C125.944 104.803 128.778 96.9402 135.105 97.3751C141.432 97.81 151.911 105.652 151.034 116.349Z" fill="white"/>
<mask id="mask9_1669_49684" style="mask-type:luminance" maskUnits="userSpaceOnUse" x="112" y="97" width="40" height="47">
<path d="M151.033 116.349C151.033 116.349 142.307 136.424 136.632 140.569C130.958 144.715 118.304 144.932 113.723 139.91C109.143 134.888 114.593 123.111 120.268 113.957C125.942 104.803 128.776 96.9402 135.103 97.3751C141.43 97.81 151.909 105.652 151.033 116.349Z" fill="white"/>
</mask>
<g mask="url(#mask9_1669_49684)">
<g style="mix-blend-mode:multiply" opacity="0.49">
<path d="M131.583 135.393C126.672 139.524 120.065 140.801 115.12 141.116C120.493 144.862 131.463 144.343 136.633 140.569C142.307 136.424 151.033 116.349 151.033 116.349C151.219 114.046 150.885 111.73 150.058 109.573C147.596 114.076 139.067 129.08 131.583 135.393Z" fill="#407BFF"/>
</g>
</g>
<path d="M151.034 116.349C151.034 116.349 142.309 136.424 136.634 140.569C130.959 144.715 118.305 144.932 113.725 139.91C109.145 134.888 114.595 123.111 120.269 113.957C125.944 104.803 128.778 96.9402 135.105 97.3751C141.432 97.81 151.911 105.652 151.034 116.349Z" stroke="#2E353A" stroke-miterlimit="10"/>
<path d="M131.437 141.425C130.645 141.93 129.801 142.346 128.918 142.667" stroke="#2E353A" stroke-width="0.5" stroke-miterlimit="10"/>
<path d="M148.236 118.152C145.528 123.924 140.45 133.583 134.502 139.047" stroke="#2E353A" stroke-width="0.5" stroke-miterlimit="10"/>
<path d="M150.34 113.388C150.34 113.388 149.863 114.581 149 116.496" stroke="#2E353A" stroke-width="0.5" stroke-miterlimit="10"/>
</svg>
