<svg width="129" height="78" viewBox="0 0 129 78" fill="none" xmlns="http://www.w3.org/2000/svg">
<path fill-rule="evenodd" clip-rule="evenodd" d="M16.123 69.9465C39.0155 60.1357 71.1368 51.2432 113.679 60.1472L114.125 49.3569C69.241 44.4563 37.0349 58.7517 16.123 68.8828V69.9465Z" fill="#E7A83A"/>
<path fill-rule="evenodd" clip-rule="evenodd" d="M40.062 41.4912L49.9838 8.77646H58.8368L48.9143 41.4912H40.062ZM36.1045 8.78539L28.141 22.6532C26.1137 26.2853 24.9288 28.1198 24.359 30.4151H24.2377C24.3787 27.5053 23.9729 23.9332 23.9346 21.9143L23.0553 8.78539H8.15314L8 9.66533C11.8286 9.66533 14.099 11.5886 14.7237 15.5224L17.6283 41.4912H26.7997L45.3442 8.78539H36.1045ZM104.95 41.4912L104.705 36.6257L93.6509 36.6168L91.3901 41.4906H81.779L99.2062 8.83835H111.003L113.955 41.4906L104.95 41.4912ZM103.935 22.1938C103.836 19.776 103.754 16.4943 103.919 14.5085H103.788C103.249 16.1325 100.935 21.0095 99.917 23.4081L96.6232 30.5791H104.385L103.935 22.1938ZM68.1307 42.4209C61.8805 42.4209 57.7329 40.4383 54.7715 38.6708L58.9887 32.2305C61.647 33.7172 63.7342 35.4331 68.5365 35.4331C70.0807 35.4331 71.5688 35.0317 72.4136 33.5686C73.6452 31.4405 72.1297 30.2957 68.6712 28.338L66.9636 27.2278C61.8371 23.7246 59.6197 20.3975 62.033 14.5895C63.5772 10.8745 67.6502 8.05859 74.3694 8.05859C79.0033 8.05859 83.3475 10.0629 85.8788 12.0212L81.0305 17.7073C78.5605 15.7094 76.5128 14.6987 74.1697 14.6987C72.3013 14.6987 70.8822 15.4191 70.3921 16.3909C69.4701 18.2178 70.6901 19.4634 73.3842 21.1358L75.4146 22.4273C81.6386 26.3529 83.1216 30.4693 81.5614 34.3177C78.8789 40.9418 73.626 42.4209 68.1307 42.4209ZM116.376 13.8366H115.793V10.29H117.139C117.995 10.29 118.432 10.5899 118.432 11.3097C118.432 11.9516 118.037 12.2171 117.506 12.2771L118.5 13.8366H117.841L116.924 12.3205H116.376V13.8366ZM117.026 11.8234C117.464 11.8234 117.849 11.7806 117.849 11.2663C117.849 10.8382 117.429 10.7865 117.079 10.7865H116.376V11.8234H117.026ZM117.009 15.2072C115.168 15.2072 113.858 13.8283 113.858 12.0033C113.858 10.0756 115.313 8.79943 117.009 8.79943C118.689 8.79943 120.145 10.0756 120.145 12.0033C120.145 13.9304 118.689 15.2072 117.009 15.2072ZM117.009 9.35649C115.622 9.35649 114.543 10.4438 114.543 12.0033C114.543 13.4595 115.485 14.6502 117.009 14.6502C118.38 14.6502 119.459 13.5711 119.459 12.0033C119.459 10.4438 118.38 9.35649 117.009 9.35649Z" fill="#1D5B99"/>
</svg>
