<svg width="186" height="62" viewBox="0 0 186 62" fill="none" xmlns="http://www.w3.org/2000/svg">
<path d="M31.5635 8C35.1293 7.99845 38.6498 8.79385 41.8632 10.3271L43.3381 11.0891L41.1872 12.9789L37.9655 9.68706L32.4131 14.5181L29.1437 11.048L18.933 20.0502L25.4702 27.1215L22.9199 29.316L29.3695 36.3873L26.8192 38.5818L36.045 48.6401L41.5053 43.7222L46.268 48.9952C45.3262 49.6963 44.2968 50.4019 43.1952 51.016C39.6653 52.9759 35.687 54.0034 31.6418 54C18.6688 53.9726 8.14468 43.6552 8.14468 30.9665C8.09859 18.3631 18.6227 8 31.5635 8ZM27.2616 29.5614L32.8601 24.6434L37.8764 30.1328L32.2779 35.0508L27.2616 29.5614ZM31.2485 39.0466L36.8009 34.0845L41.8617 39.5709L36.2632 44.4888L31.2485 39.0466ZM23.2779 20.2117L28.8733 15.2938L33.888 20.7832L28.2895 25.7011L23.2779 20.2117ZM33.53 17.5752L37.6782 13.8872L41.4423 17.9714L37.2941 21.7052L33.53 17.5752ZM40.966 34.4808L45.1142 30.7927L48.8783 34.9197L44.7285 38.6062L40.966 34.4808ZM44.6533 42.7804L48.8014 39.0924L52.5609 43.1766L48.4127 46.9074L44.6533 42.7804ZM46.3571 23.8235L49.1333 21.3638L51.6406 24.0872L48.8644 26.5454L46.3571 23.8235ZM42.7743 15.7007L45.5505 13.1983L48.0594 15.9644L45.2816 18.4241L42.7743 15.7007ZM49.8938 31.9494L52.67 29.4897L55.2204 32.2131L52.3996 34.6713L49.8938 31.9494ZM37.4001 25.8459L41.5483 22.1578L45.3093 26.2421L41.1611 29.9302L37.4001 25.8459ZM66.3544 19.6981H68.6036L72.1157 33.0238H72.2924L74.8704 19.6981H77.8264L73.7474 37.5394H71.0188L67.5835 24.9696H67.4052L64.0683 37.5394H61.3412L57.2315 19.6814H60.0614L62.8914 33.0071H63.0681L66.3544 19.6981ZM81.4169 29.9545H87.2013C87.0753 27.3104 85.7878 26.2543 84.4358 26.2543C82.8949 26.2543 81.7057 27.4384 81.4292 29.9545M89.2339 34.6911V36.6052C88.097 37.2605 86.5821 37.7634 84.7784 37.7634C80.535 37.7634 78.7912 35.1422 78.7912 31.1646C78.7912 27.3348 80.7363 24.5657 84.5265 24.5657C87.6837 24.5657 89.6303 26.6079 89.6303 30.712V31.6446H81.3954C81.3954 34.6667 82.6321 36.0032 85.2363 36.0032C86.6006 36.0032 87.8481 35.5232 89.2523 34.6926M95.5099 35.7594C96.3181 36.1099 97.203 36.1648 97.836 36.1648C99.7057 36.1648 101.119 35.0066 101.119 30.9253C101.119 27.7249 99.9577 26.6932 98.2646 26.6932C97.2537 26.6932 96.5209 26.9706 95.5099 27.5238V35.7594ZM95.536 25.6599C96.2919 25.2576 97.5794 24.7273 98.9468 24.7273C102.081 24.7273 103.774 26.8913 103.774 30.9238C103.774 35.6482 101.5 37.9265 97.8375 37.9265C96.1231 37.8796 94.4402 37.4581 92.9089 36.6921V19.0809L95.5207 18.4515V25.6142L95.536 25.6599ZM115.699 37.547H114.083L108.927 24.9025H108.701V37.547H106.427V19.6859H109.5L115.158 33.7676H115.284L120.692 19.6859H123.827V37.547H121.067V24.5855H120.84L115.699 37.547ZM134.961 31.1646C134.961 27.7661 133.572 26.329 131.854 26.329C130.187 26.329 128.746 27.7646 128.746 31.1646C128.746 34.6164 130.061 36.0002 131.854 36.0002C133.647 36.0002 134.961 34.6164 134.961 31.1646ZM126.093 31.1646C126.093 26.7557 128.52 24.5657 131.854 24.5657C135.188 24.5657 137.615 26.7557 137.615 31.1646C137.615 35.4714 135.317 37.7634 131.854 37.7634C128.391 37.7634 126.093 35.4698 126.093 31.1646ZM139.58 26.4143C140.717 25.7331 143.119 24.549 146.024 24.549C149.055 24.549 150.191 25.7331 150.191 28.3284V37.448H147.579V28.9091C147.579 26.9203 146.596 26.5667 145.305 26.5667C144.296 26.5667 143.005 27.0209 142.223 27.4735V37.448H139.611L139.58 26.4143ZM155.752 29.9378H161.538C161.415 27.2937 160.125 26.2375 158.773 26.2375C157.232 26.2375 156.046 27.4217 155.766 29.9378M163.571 34.6743V36.5884C162.434 37.2438 160.919 37.7467 159.115 37.7467C154.875 37.7467 153.128 35.1254 153.128 31.1478C153.128 27.318 155.073 24.549 158.863 24.549C162.022 24.549 163.969 26.5911 163.969 30.6952V31.6279H155.731C155.731 34.6499 156.969 35.9865 159.572 35.9865C160.934 35.9865 162.183 35.5064 163.588 34.6759M174.465 24.549H177.145L172.571 37.1417C171.306 40.6163 169.765 42.4299 166.862 42.4299V40.3664C168.582 40.3664 169.627 39.0055 170.248 37.1401L165.396 24.5474H168.161L171.395 33.8163H171.549L174.465 24.549Z" fill="#106DB3"/>
</svg>
